<svg xmlns="http://www.w3.org/2000/svg" xmlns:xlink="http://www.w3.org/1999/xlink" width="600" height="400" viewBox="0 0 2400 1600">
<defs>
  <clipPath id="clip850">
    <rect x="0" y="0" width="2400" height="1600"></rect>
  </clipPath>
</defs>
<path clip-path="url(#clip850)" d="
M0 1600 L2400 1600 L2400 0 L0 0  Z
  " fill="#ffffff" fill-rule="evenodd" fill-opacity="1"></path>
<defs>
  <clipPath id="clip851">
    <rect x="480" y="0" width="1681" height="1600"></rect>
  </clipPath>
</defs>
<path clip-path="url(#clip850)" d="
M222.69 1423.18 L2352.76 1423.18 L2352.76 47.2441 L222.69 47.2441  Z
  " fill="#ffffff" fill-rule="evenodd" fill-opacity="1"></path>
<defs>
  <clipPath id="clip852">
    <rect x="222" y="47" width="2131" height="1377"></rect>
  </clipPath>
</defs>
<polyline clip-path="url(#clip852)" style="stroke:#000000; stroke-linecap:butt; stroke-linejoin:round; stroke-width:2; stroke-opacity:0.1; fill:none" points="
  282.975,1423.18 282.975,47.2441 
  "></polyline>
<polyline clip-path="url(#clip852)" style="stroke:#000000; stroke-linecap:butt; stroke-linejoin:round; stroke-width:2; stroke-opacity:0.1; fill:none" points="
  785.349,1423.18 785.349,47.2441 
  "></polyline>
<polyline clip-path="url(#clip852)" style="stroke:#000000; stroke-linecap:butt; stroke-linejoin:round; stroke-width:2; stroke-opacity:0.1; fill:none" points="
  1287.72,1423.18 1287.72,47.2441 
  "></polyline>
<polyline clip-path="url(#clip852)" style="stroke:#000000; stroke-linecap:butt; stroke-linejoin:round; stroke-width:2; stroke-opacity:0.1; fill:none" points="
  1790.1,1423.18 1790.1,47.2441 
  "></polyline>
<polyline clip-path="url(#clip852)" style="stroke:#000000; stroke-linecap:butt; stroke-linejoin:round; stroke-width:2; stroke-opacity:0.1; fill:none" points="
  2292.47,1423.18 2292.47,47.2441 
  "></polyline>
<polyline clip-path="url(#clip850)" style="stroke:#000000; stroke-linecap:butt; stroke-linejoin:round; stroke-width:4; stroke-opacity:1; fill:none" points="
  222.69,1423.18 2352.76,1423.18 
  "></polyline>
<polyline clip-path="url(#clip850)" style="stroke:#000000; stroke-linecap:butt; stroke-linejoin:round; stroke-width:4; stroke-opacity:1; fill:none" points="
  282.975,1423.18 282.975,1404.28 
  "></polyline>
<polyline clip-path="url(#clip850)" style="stroke:#000000; stroke-linecap:butt; stroke-linejoin:round; stroke-width:4; stroke-opacity:1; fill:none" points="
  785.349,1423.18 785.349,1404.28 
  "></polyline>
<polyline clip-path="url(#clip850)" style="stroke:#000000; stroke-linecap:butt; stroke-linejoin:round; stroke-width:4; stroke-opacity:1; fill:none" points="
  1287.72,1423.18 1287.72,1404.28 
  "></polyline>
<polyline clip-path="url(#clip850)" style="stroke:#000000; stroke-linecap:butt; stroke-linejoin:round; stroke-width:4; stroke-opacity:1; fill:none" points="
  1790.1,1423.18 1790.1,1404.28 
  "></polyline>
<polyline clip-path="url(#clip850)" style="stroke:#000000; stroke-linecap:butt; stroke-linejoin:round; stroke-width:4; stroke-opacity:1; fill:none" points="
  2292.47,1423.18 2292.47,1404.28 
  "></polyline>
<path clip-path="url(#clip850)" d="M230.198 1454.1 Q226.587 1454.1 224.758 1457.66 Q222.952 1461.2 222.952 1468.33 Q222.952 1475.44 224.758 1479.01 Q226.587 1482.55 230.198 1482.55 Q233.832 1482.55 235.637 1479.01 Q237.466 1475.44 237.466 1468.33 Q237.466 1461.2 235.637 1457.66 Q233.832 1454.1 230.198 1454.1 M230.198 1450.39 Q236.008 1450.39 239.063 1455 Q242.142 1459.58 242.142 1468.33 Q242.142 1477.06 239.063 1481.67 Q236.008 1486.25 230.198 1486.25 Q224.388 1486.25 221.309 1481.67 Q218.253 1477.06 218.253 1468.33 Q218.253 1459.58 221.309 1455 Q224.388 1450.39 230.198 1450.39 Z" fill="#000000" fill-rule="evenodd" fill-opacity="1"></path><path clip-path="url(#clip850)" d="M250.36 1479.7 L255.244 1479.7 L255.244 1485.58 L250.36 1485.58 L250.36 1479.7 Z" fill="#000000" fill-rule="evenodd" fill-opacity="1"></path><path clip-path="url(#clip850)" d="M275.429 1454.1 Q271.818 1454.1 269.989 1457.66 Q268.184 1461.2 268.184 1468.33 Q268.184 1475.44 269.989 1479.01 Q271.818 1482.55 275.429 1482.55 Q279.063 1482.55 280.869 1479.01 Q282.697 1475.44 282.697 1468.33 Q282.697 1461.2 280.869 1457.66 Q279.063 1454.1 275.429 1454.1 M275.429 1450.39 Q281.239 1450.39 284.295 1455 Q287.373 1459.58 287.373 1468.33 Q287.373 1477.06 284.295 1481.67 Q281.239 1486.25 275.429 1486.25 Q269.619 1486.25 266.54 1481.67 Q263.485 1477.06 263.485 1468.33 Q263.485 1459.58 266.54 1455 Q269.619 1450.39 275.429 1450.39 Z" fill="#000000" fill-rule="evenodd" fill-opacity="1"></path><path clip-path="url(#clip850)" d="M305.591 1454.1 Q301.98 1454.1 300.151 1457.66 Q298.345 1461.2 298.345 1468.33 Q298.345 1475.44 300.151 1479.01 Q301.98 1482.55 305.591 1482.55 Q309.225 1482.55 311.031 1479.01 Q312.859 1475.44 312.859 1468.33 Q312.859 1461.2 311.031 1457.66 Q309.225 1454.1 305.591 1454.1 M305.591 1450.39 Q311.401 1450.39 314.457 1455 Q317.535 1459.58 317.535 1468.33 Q317.535 1477.06 314.457 1481.67 Q311.401 1486.25 305.591 1486.25 Q299.781 1486.25 296.702 1481.67 Q293.646 1477.06 293.646 1468.33 Q293.646 1459.58 296.702 1455 Q299.781 1450.39 305.591 1450.39 Z" fill="#000000" fill-rule="evenodd" fill-opacity="1"></path><path clip-path="url(#clip850)" d="M335.753 1454.1 Q332.142 1454.1 330.313 1457.66 Q328.507 1461.2 328.507 1468.33 Q328.507 1475.44 330.313 1479.01 Q332.142 1482.55 335.753 1482.55 Q339.387 1482.55 341.192 1479.01 Q343.021 1475.44 343.021 1468.33 Q343.021 1461.2 341.192 1457.66 Q339.387 1454.1 335.753 1454.1 M335.753 1450.39 Q341.563 1450.39 344.618 1455 Q347.697 1459.58 347.697 1468.33 Q347.697 1477.06 344.618 1481.67 Q341.563 1486.25 335.753 1486.25 Q329.943 1486.25 326.864 1481.67 Q323.808 1477.06 323.808 1468.33 Q323.808 1459.58 326.864 1455 Q329.943 1450.39 335.753 1450.39 Z" fill="#000000" fill-rule="evenodd" fill-opacity="1"></path><path clip-path="url(#clip850)" d="M733.069 1454.1 Q729.458 1454.1 727.63 1457.66 Q725.824 1461.2 725.824 1468.33 Q725.824 1475.44 727.63 1479.01 Q729.458 1482.55 733.069 1482.55 Q736.704 1482.55 738.509 1479.01 Q740.338 1475.44 740.338 1468.33 Q740.338 1461.2 738.509 1457.66 Q736.704 1454.1 733.069 1454.1 M733.069 1450.39 Q738.879 1450.39 741.935 1455 Q745.014 1459.58 745.014 1468.33 Q745.014 1477.06 741.935 1481.67 Q738.879 1486.25 733.069 1486.25 Q727.259 1486.25 724.181 1481.67 Q721.125 1477.06 721.125 1468.33 Q721.125 1459.58 724.181 1455 Q727.259 1450.39 733.069 1450.39 Z" fill="#000000" fill-rule="evenodd" fill-opacity="1"></path><path clip-path="url(#clip850)" d="M753.231 1479.7 L758.116 1479.7 L758.116 1485.58 L753.231 1485.58 L753.231 1479.7 Z" fill="#000000" fill-rule="evenodd" fill-opacity="1"></path><path clip-path="url(#clip850)" d="M778.301 1454.1 Q774.689 1454.1 772.861 1457.66 Q771.055 1461.2 771.055 1468.33 Q771.055 1475.44 772.861 1479.01 Q774.689 1482.55 778.301 1482.55 Q781.935 1482.55 783.74 1479.01 Q785.569 1475.44 785.569 1468.33 Q785.569 1461.2 783.74 1457.66 Q781.935 1454.1 778.301 1454.1 M778.301 1450.39 Q784.111 1450.39 787.166 1455 Q790.245 1459.58 790.245 1468.33 Q790.245 1477.06 787.166 1481.67 Q784.111 1486.25 778.301 1486.25 Q772.49 1486.25 769.412 1481.67 Q766.356 1477.06 766.356 1468.33 Q766.356 1459.58 769.412 1455 Q772.49 1450.39 778.301 1450.39 Z" fill="#000000" fill-rule="evenodd" fill-opacity="1"></path><path clip-path="url(#clip850)" d="M802.49 1481.64 L818.81 1481.64 L818.81 1485.58 L796.865 1485.58 L796.865 1481.64 Q799.527 1478.89 804.111 1474.26 Q808.717 1469.61 809.898 1468.27 Q812.143 1465.74 813.023 1464.01 Q813.925 1462.25 813.925 1460.56 Q813.925 1457.8 811.981 1456.07 Q810.06 1454.33 806.958 1454.33 Q804.759 1454.33 802.305 1455.09 Q799.875 1455.86 797.097 1457.41 L797.097 1452.69 Q799.921 1451.55 802.375 1450.97 Q804.828 1450.39 806.865 1450.39 Q812.236 1450.39 815.43 1453.08 Q818.624 1455.77 818.624 1460.26 Q818.624 1462.39 817.814 1464.31 Q817.027 1466.2 814.921 1468.8 Q814.342 1469.47 811.24 1472.69 Q808.138 1475.88 802.49 1481.64 Z" fill="#000000" fill-rule="evenodd" fill-opacity="1"></path><path clip-path="url(#clip850)" d="M828.671 1451.02 L847.027 1451.02 L847.027 1454.96 L832.953 1454.96 L832.953 1463.43 Q833.972 1463.08 834.99 1462.92 Q836.009 1462.73 837.027 1462.73 Q842.814 1462.73 846.194 1465.9 Q849.573 1469.08 849.573 1474.49 Q849.573 1480.07 846.101 1483.17 Q842.629 1486.25 836.31 1486.25 Q834.134 1486.25 831.865 1485.88 Q829.62 1485.51 827.212 1484.77 L827.212 1480.07 Q829.296 1481.2 831.518 1481.76 Q833.74 1482.32 836.217 1482.32 Q840.222 1482.32 842.559 1480.21 Q844.897 1478.1 844.897 1474.49 Q844.897 1470.88 842.559 1468.77 Q840.222 1466.67 836.217 1466.67 Q834.342 1466.67 832.467 1467.08 Q830.615 1467.5 828.671 1468.38 L828.671 1451.02 Z" fill="#000000" fill-rule="evenodd" fill-opacity="1"></path><path clip-path="url(#clip850)" d="M1234.95 1454.1 Q1231.33 1454.1 1229.51 1457.66 Q1227.7 1461.2 1227.7 1468.33 Q1227.7 1475.44 1229.51 1479.01 Q1231.33 1482.55 1234.95 1482.55 Q1238.58 1482.55 1240.39 1479.01 Q1242.21 1475.44 1242.21 1468.33 Q1242.21 1461.2 1240.39 1457.66 Q1238.58 1454.1 1234.95 1454.1 M1234.95 1450.39 Q1240.76 1450.39 1243.81 1455 Q1246.89 1459.58 1246.89 1468.33 Q1246.89 1477.06 1243.81 1481.67 Q1240.76 1486.25 1234.95 1486.25 Q1229.14 1486.25 1226.06 1481.67 Q1223 1477.06 1223 1468.33 Q1223 1459.58 1226.06 1455 Q1229.14 1450.39 1234.95 1450.39 Z" fill="#000000" fill-rule="evenodd" fill-opacity="1"></path><path clip-path="url(#clip850)" d="M1255.11 1479.7 L1259.99 1479.7 L1259.99 1485.58 L1255.11 1485.58 L1255.11 1479.7 Z" fill="#000000" fill-rule="evenodd" fill-opacity="1"></path><path clip-path="url(#clip850)" d="M1280.18 1454.1 Q1276.57 1454.1 1274.74 1457.66 Q1272.93 1461.2 1272.93 1468.33 Q1272.93 1475.44 1274.74 1479.01 Q1276.57 1482.55 1280.18 1482.55 Q1283.81 1482.55 1285.62 1479.01 Q1287.45 1475.44 1287.45 1468.33 Q1287.45 1461.2 1285.62 1457.66 Q1283.81 1454.1 1280.18 1454.1 M1280.18 1450.39 Q1285.99 1450.39 1289.04 1455 Q1292.12 1459.58 1292.12 1468.33 Q1292.12 1477.06 1289.04 1481.67 Q1285.99 1486.25 1280.18 1486.25 Q1274.37 1486.25 1271.29 1481.67 Q1268.23 1477.06 1268.23 1468.33 Q1268.23 1459.58 1271.29 1455 Q1274.37 1450.39 1280.18 1450.39 Z" fill="#000000" fill-rule="evenodd" fill-opacity="1"></path><path clip-path="url(#clip850)" d="M1300.39 1451.02 L1318.74 1451.02 L1318.74 1454.96 L1304.67 1454.96 L1304.67 1463.43 Q1305.69 1463.08 1306.7 1462.92 Q1307.72 1462.73 1308.74 1462.73 Q1314.53 1462.73 1317.91 1465.9 Q1321.29 1469.08 1321.29 1474.49 Q1321.29 1480.07 1317.82 1483.17 Q1314.34 1486.25 1308.02 1486.25 Q1305.85 1486.25 1303.58 1485.88 Q1301.33 1485.51 1298.93 1484.77 L1298.93 1480.07 Q1301.01 1481.2 1303.23 1481.76 Q1305.45 1482.32 1307.93 1482.32 Q1311.94 1482.32 1314.27 1480.21 Q1316.61 1478.1 1316.61 1474.49 Q1316.61 1470.88 1314.27 1468.77 Q1311.94 1466.67 1307.93 1466.67 Q1306.06 1466.67 1304.18 1467.08 Q1302.33 1467.5 1300.39 1468.38 L1300.39 1451.02 Z" fill="#000000" fill-rule="evenodd" fill-opacity="1"></path><path clip-path="url(#clip850)" d="M1340.5 1454.1 Q1336.89 1454.1 1335.06 1457.66 Q1333.26 1461.2 1333.26 1468.33 Q1333.26 1475.44 1335.06 1479.01 Q1336.89 1482.55 1340.5 1482.55 Q1344.13 1482.55 1345.94 1479.01 Q1347.77 1475.44 1347.77 1468.33 Q1347.77 1461.2 1345.94 1457.66 Q1344.13 1454.1 1340.5 1454.1 M1340.5 1450.39 Q1346.31 1450.39 1349.37 1455 Q1352.44 1459.58 1352.44 1468.33 Q1352.44 1477.06 1349.37 1481.67 Q1346.31 1486.25 1340.5 1486.25 Q1334.69 1486.25 1331.61 1481.67 Q1328.56 1477.06 1328.56 1468.33 Q1328.56 1459.58 1331.61 1455 Q1334.69 1450.39 1340.5 1450.39 Z" fill="#000000" fill-rule="evenodd" fill-opacity="1"></path><path clip-path="url(#clip850)" d="M1737.82 1454.1 Q1734.21 1454.1 1732.38 1457.66 Q1730.57 1461.2 1730.57 1468.33 Q1730.57 1475.44 1732.38 1479.01 Q1734.21 1482.55 1737.82 1482.55 Q1741.45 1482.55 1743.26 1479.01 Q1745.09 1475.44 1745.09 1468.33 Q1745.09 1461.2 1743.26 1457.66 Q1741.45 1454.1 1737.82 1454.1 M1737.82 1450.39 Q1743.63 1450.39 1746.68 1455 Q1749.76 1459.58 1749.76 1468.33 Q1749.76 1477.06 1746.68 1481.67 Q1743.63 1486.25 1737.82 1486.25 Q1732.01 1486.25 1728.93 1481.67 Q1725.87 1477.06 1725.87 1468.33 Q1725.87 1459.58 1728.93 1455 Q1732.01 1450.39 1737.82 1450.39 Z" fill="#000000" fill-rule="evenodd" fill-opacity="1"></path><path clip-path="url(#clip850)" d="M1757.98 1479.7 L1762.86 1479.7 L1762.86 1485.58 L1757.98 1485.58 L1757.98 1479.7 Z" fill="#000000" fill-rule="evenodd" fill-opacity="1"></path><path clip-path="url(#clip850)" d="M1783.05 1454.1 Q1779.44 1454.1 1777.61 1457.66 Q1775.8 1461.2 1775.8 1468.33 Q1775.8 1475.44 1777.61 1479.01 Q1779.44 1482.55 1783.05 1482.55 Q1786.68 1482.55 1788.49 1479.01 Q1790.32 1475.44 1790.32 1468.33 Q1790.32 1461.2 1788.49 1457.66 Q1786.68 1454.1 1783.05 1454.1 M1783.05 1450.39 Q1788.86 1450.39 1791.91 1455 Q1794.99 1459.58 1794.99 1468.33 Q1794.99 1477.06 1791.91 1481.67 Q1788.86 1486.25 1783.05 1486.25 Q1777.24 1486.25 1774.16 1481.67 Q1771.1 1477.06 1771.1 1468.33 Q1771.1 1459.58 1774.16 1455 Q1777.24 1450.39 1783.05 1450.39 Z" fill="#000000" fill-rule="evenodd" fill-opacity="1"></path><path clip-path="url(#clip850)" d="M1802.03 1451.02 L1824.25 1451.02 L1824.25 1453.01 L1811.71 1485.58 L1806.82 1485.58 L1818.63 1454.96 L1802.03 1454.96 L1802.03 1451.02 Z" fill="#000000" fill-rule="evenodd" fill-opacity="1"></path><path clip-path="url(#clip850)" d="M1833.42 1451.02 L1851.77 1451.02 L1851.77 1454.96 L1837.7 1454.96 L1837.7 1463.43 Q1838.72 1463.08 1839.74 1462.92 Q1840.76 1462.73 1841.78 1462.73 Q1847.56 1462.73 1850.94 1465.9 Q1854.32 1469.08 1854.32 1474.49 Q1854.32 1480.07 1850.85 1483.17 Q1847.38 1486.25 1841.06 1486.25 Q1838.88 1486.25 1836.61 1485.88 Q1834.37 1485.51 1831.96 1484.77 L1831.96 1480.07 Q1834.04 1481.2 1836.27 1481.76 Q1838.49 1482.32 1840.96 1482.32 Q1844.97 1482.32 1847.31 1480.21 Q1849.65 1478.1 1849.65 1474.49 Q1849.65 1470.88 1847.31 1468.77 Q1844.97 1466.67 1840.96 1466.67 Q1839.09 1466.67 1837.21 1467.08 Q1835.36 1467.5 1833.42 1468.38 L1833.42 1451.02 Z" fill="#000000" fill-rule="evenodd" fill-opacity="1"></path><path clip-path="url(#clip850)" d="M2239.69 1454.1 Q2236.08 1454.1 2234.25 1457.66 Q2232.45 1461.2 2232.45 1468.33 Q2232.45 1475.44 2234.25 1479.01 Q2236.08 1482.55 2239.69 1482.55 Q2243.33 1482.55 2245.13 1479.01 Q2246.96 1475.44 2246.96 1468.33 Q2246.96 1461.2 2245.13 1457.66 Q2243.33 1454.1 2239.69 1454.1 M2239.69 1450.39 Q2245.5 1450.39 2248.56 1455 Q2251.64 1459.58 2251.64 1468.33 Q2251.64 1477.06 2248.56 1481.67 Q2245.5 1486.25 2239.69 1486.25 Q2233.88 1486.25 2230.8 1481.67 Q2227.75 1477.06 2227.75 1468.33 Q2227.75 1459.58 2230.8 1455 Q2233.88 1450.39 2239.69 1450.39 Z" fill="#000000" fill-rule="evenodd" fill-opacity="1"></path><path clip-path="url(#clip850)" d="M2259.86 1479.7 L2264.74 1479.7 L2264.74 1485.58 L2259.86 1485.58 L2259.86 1479.7 Z" fill="#000000" fill-rule="evenodd" fill-opacity="1"></path><path clip-path="url(#clip850)" d="M2275.74 1481.64 L2283.37 1481.64 L2283.37 1455.28 L2275.06 1456.95 L2275.06 1452.69 L2283.33 1451.02 L2288 1451.02 L2288 1481.64 L2295.64 1481.64 L2295.64 1485.58 L2275.74 1485.58 L2275.74 1481.64 Z" fill="#000000" fill-rule="evenodd" fill-opacity="1"></path><path clip-path="url(#clip850)" d="M2315.09 1454.1 Q2311.48 1454.1 2309.65 1457.66 Q2307.84 1461.2 2307.84 1468.33 Q2307.84 1475.44 2309.65 1479.01 Q2311.48 1482.55 2315.09 1482.55 Q2318.72 1482.55 2320.53 1479.01 Q2322.36 1475.44 2322.36 1468.33 Q2322.36 1461.2 2320.53 1457.66 Q2318.72 1454.1 2315.09 1454.1 M2315.09 1450.39 Q2320.9 1450.39 2323.95 1455 Q2327.03 1459.58 2327.03 1468.33 Q2327.03 1477.06 2323.95 1481.67 Q2320.9 1486.25 2315.09 1486.25 Q2309.28 1486.25 2306.2 1481.67 Q2303.14 1477.06 2303.14 1468.33 Q2303.14 1459.58 2306.2 1455 Q2309.28 1450.39 2315.09 1450.39 Z" fill="#000000" fill-rule="evenodd" fill-opacity="1"></path><path clip-path="url(#clip850)" d="M2345.25 1454.1 Q2341.64 1454.1 2339.81 1457.66 Q2338 1461.2 2338 1468.33 Q2338 1475.44 2339.81 1479.01 Q2341.64 1482.55 2345.25 1482.55 Q2348.88 1482.55 2350.69 1479.01 Q2352.52 1475.44 2352.52 1468.33 Q2352.52 1461.2 2350.69 1457.66 Q2348.88 1454.1 2345.25 1454.1 M2345.25 1450.39 Q2351.06 1450.39 2354.11 1455 Q2357.19 1459.58 2357.19 1468.33 Q2357.19 1477.06 2354.11 1481.67 Q2351.06 1486.25 2345.25 1486.25 Q2339.44 1486.25 2336.36 1481.67 Q2333.3 1477.06 2333.3 1468.33 Q2333.3 1459.58 2336.36 1455 Q2339.44 1450.39 2345.25 1450.39 Z" fill="#000000" fill-rule="evenodd" fill-opacity="1"></path><path clip-path="url(#clip850)" d="M1033.99 1520.52 L1043.57 1520.52 L1055.69 1552.86 L1067.88 1520.52 L1077.46 1520.52 L1077.46 1568.04 L1071.19 1568.04 L1071.19 1526.32 L1058.94 1558.91 L1052.48 1558.91 L1040.22 1526.32 L1040.22 1568.04 L1033.99 1568.04 L1033.99 1520.52 Z" fill="#000000" fill-rule="evenodd" fill-opacity="1"></path><path clip-path="url(#clip850)" d="M1089.97 1532.4 L1095.83 1532.4 L1095.83 1568.04 L1089.97 1568.04 L1089.97 1532.4 M1089.97 1518.52 L1095.83 1518.52 L1095.83 1525.93 L1089.97 1525.93 L1089.97 1518.52 Z" fill="#000000" fill-rule="evenodd" fill-opacity="1"></path><path clip-path="url(#clip850)" d="M1130.81 1533.45 L1130.81 1538.98 Q1128.33 1537.71 1125.65 1537.07 Q1122.98 1536.44 1120.11 1536.44 Q1115.75 1536.44 1113.56 1537.77 Q1111.39 1539.11 1111.39 1541.79 Q1111.39 1543.82 1112.95 1545 Q1114.51 1546.15 1119.22 1547.2 L1121.23 1547.64 Q1127.47 1548.98 1130.08 1551.43 Q1132.72 1553.85 1132.72 1558.21 Q1132.72 1563.17 1128.77 1566.07 Q1124.86 1568.97 1117.98 1568.97 Q1115.12 1568.97 1112 1568.39 Q1108.91 1567.85 1105.47 1566.74 L1105.47 1560.69 Q1108.72 1562.38 1111.87 1563.24 Q1115.02 1564.07 1118.11 1564.07 Q1122.25 1564.07 1124.47 1562.66 Q1126.7 1561.23 1126.7 1558.65 Q1126.7 1556.27 1125.08 1554.99 Q1123.49 1553.72 1118.05 1552.54 L1116.01 1552.07 Q1110.57 1550.92 1108.15 1548.56 Q1105.73 1546.18 1105.73 1542.04 Q1105.73 1537.01 1109.29 1534.27 Q1112.86 1531.54 1119.41 1531.54 Q1122.66 1531.54 1125.52 1532.01 Q1128.39 1532.49 1130.81 1533.45 Z" fill="#000000" fill-rule="evenodd" fill-opacity="1"></path><path clip-path="url(#clip850)" d="M1164.77 1533.45 L1164.77 1538.98 Q1162.29 1537.71 1159.61 1537.07 Q1156.94 1536.44 1154.08 1536.44 Q1149.71 1536.44 1147.52 1537.77 Q1145.35 1539.11 1145.35 1541.79 Q1145.35 1543.82 1146.91 1545 Q1148.47 1546.15 1153.18 1547.2 L1155.19 1547.64 Q1161.43 1548.98 1164.04 1551.43 Q1166.68 1553.85 1166.68 1558.21 Q1166.68 1563.17 1162.73 1566.07 Q1158.82 1568.97 1151.94 1568.97 Q1149.08 1568.97 1145.96 1568.39 Q1142.87 1567.85 1139.43 1566.74 L1139.43 1560.69 Q1142.68 1562.38 1145.83 1563.24 Q1148.98 1564.07 1152.07 1564.07 Q1156.21 1564.07 1158.44 1562.66 Q1160.66 1561.23 1160.66 1558.65 Q1160.66 1556.27 1159.04 1554.99 Q1157.45 1553.72 1152.01 1552.54 L1149.97 1552.07 Q1144.53 1550.92 1142.11 1548.56 Q1139.69 1546.18 1139.69 1542.04 Q1139.69 1537.01 1143.25 1534.27 Q1146.82 1531.54 1153.37 1531.54 Q1156.62 1531.54 1159.49 1532.01 Q1162.35 1532.49 1164.77 1533.45 Z" fill="#000000" fill-rule="evenodd" fill-opacity="1"></path><path clip-path="url(#clip850)" d="M1181.67 1562.7 L1181.67 1581.6 L1175.78 1581.6 L1175.78 1532.4 L1181.67 1532.4 L1181.67 1537.81 Q1183.52 1534.62 1186.32 1533.1 Q1189.15 1531.54 1193.07 1531.54 Q1199.56 1531.54 1203.6 1536.69 Q1207.67 1541.85 1207.67 1550.25 Q1207.67 1558.65 1203.6 1563.81 Q1199.56 1568.97 1193.07 1568.97 Q1189.15 1568.97 1186.32 1567.44 Q1183.52 1565.88 1181.67 1562.7 M1201.6 1550.25 Q1201.6 1543.79 1198.92 1540.13 Q1196.28 1536.44 1191.63 1536.44 Q1186.99 1536.44 1184.31 1540.13 Q1181.67 1543.79 1181.67 1550.25 Q1181.67 1556.71 1184.31 1560.4 Q1186.99 1564.07 1191.63 1564.07 Q1196.28 1564.07 1198.92 1560.4 Q1201.6 1556.71 1201.6 1550.25 Z" fill="#000000" fill-rule="evenodd" fill-opacity="1"></path><path clip-path="url(#clip850)" d="M1247.87 1548.76 L1247.87 1551.62 L1220.95 1551.62 Q1221.33 1557.67 1224.58 1560.85 Q1227.85 1564 1233.68 1564 Q1237.05 1564 1240.2 1563.17 Q1243.39 1562.35 1246.51 1560.69 L1246.51 1566.23 Q1243.35 1567.57 1240.04 1568.27 Q1236.73 1568.97 1233.33 1568.97 Q1224.8 1568.97 1219.8 1564 Q1214.84 1559.04 1214.84 1550.57 Q1214.84 1541.82 1219.55 1536.69 Q1224.29 1531.54 1232.31 1531.54 Q1239.5 1531.54 1243.67 1536.18 Q1247.87 1540.8 1247.87 1548.76 M1242.02 1547.04 Q1241.95 1542.23 1239.31 1539.37 Q1236.7 1536.5 1232.37 1536.5 Q1227.47 1536.5 1224.51 1539.27 Q1221.58 1542.04 1221.14 1547.07 L1242.02 1547.04 Z" fill="#000000" fill-rule="evenodd" fill-opacity="1"></path><path clip-path="url(#clip850)" d="M1283.14 1533.76 L1283.14 1539.24 Q1280.66 1537.87 1278.14 1537.2 Q1275.66 1536.5 1273.11 1536.5 Q1267.42 1536.5 1264.27 1540.13 Q1261.11 1543.73 1261.11 1550.25 Q1261.11 1556.78 1264.27 1560.4 Q1267.42 1564 1273.11 1564 Q1275.66 1564 1278.14 1563.33 Q1280.66 1562.63 1283.14 1561.26 L1283.14 1566.68 Q1280.69 1567.82 1278.05 1568.39 Q1275.44 1568.97 1272.48 1568.97 Q1264.42 1568.97 1259.68 1563.91 Q1254.94 1558.85 1254.94 1550.25 Q1254.94 1541.53 1259.71 1536.53 Q1264.52 1531.54 1272.86 1531.54 Q1275.56 1531.54 1278.14 1532.11 Q1280.72 1532.65 1283.14 1533.76 Z" fill="#000000" fill-rule="evenodd" fill-opacity="1"></path><path clip-path="url(#clip850)" d="M1293.32 1532.4 L1299.18 1532.4 L1299.18 1568.04 L1293.32 1568.04 L1293.32 1532.4 M1293.32 1518.52 L1299.18 1518.52 L1299.18 1525.93 L1293.32 1525.93 L1293.32 1518.52 Z" fill="#000000" fill-rule="evenodd" fill-opacity="1"></path><path clip-path="url(#clip850)" d="M1329.48 1518.52 L1329.48 1523.39 L1323.88 1523.39 Q1320.73 1523.39 1319.49 1524.66 Q1318.28 1525.93 1318.28 1529.24 L1318.28 1532.4 L1327.92 1532.4 L1327.92 1536.95 L1318.28 1536.95 L1318.28 1568.04 L1312.39 1568.04 L1312.39 1536.95 L1306.79 1536.95 L1306.79 1532.4 L1312.39 1532.4 L1312.39 1529.91 Q1312.39 1523.96 1315.16 1521.26 Q1317.93 1518.52 1323.94 1518.52 L1329.48 1518.52 Z" fill="#000000" fill-rule="evenodd" fill-opacity="1"></path><path clip-path="url(#clip850)" d="M1334.38 1532.4 L1340.24 1532.4 L1340.24 1568.04 L1334.38 1568.04 L1334.38 1532.4 M1334.38 1518.52 L1340.24 1518.52 L1340.24 1525.93 L1334.38 1525.93 L1334.38 1518.52 Z" fill="#000000" fill-rule="evenodd" fill-opacity="1"></path><path clip-path="url(#clip850)" d="M1378.15 1533.76 L1378.15 1539.24 Q1375.67 1537.87 1373.15 1537.2 Q1370.67 1536.5 1368.12 1536.5 Q1362.42 1536.5 1359.27 1540.13 Q1356.12 1543.73 1356.12 1550.25 Q1356.12 1556.78 1359.27 1560.4 Q1362.42 1564 1368.12 1564 Q1370.67 1564 1373.15 1563.33 Q1375.67 1562.63 1378.15 1561.26 L1378.15 1566.68 Q1375.7 1567.82 1373.06 1568.39 Q1370.45 1568.97 1367.49 1568.97 Q1359.43 1568.97 1354.69 1563.91 Q1349.95 1558.85 1349.95 1550.25 Q1349.95 1541.53 1354.72 1536.53 Q1359.53 1531.54 1367.87 1531.54 Q1370.57 1531.54 1373.15 1532.11 Q1375.73 1532.65 1378.15 1533.76 Z" fill="#000000" fill-rule="evenodd" fill-opacity="1"></path><path clip-path="url(#clip850)" d="M1404.53 1550.12 Q1397.44 1550.12 1394.7 1551.75 Q1391.96 1553.37 1391.96 1557.29 Q1391.96 1560.4 1394 1562.25 Q1396.07 1564.07 1399.6 1564.07 Q1404.47 1564.07 1407.4 1560.63 Q1410.36 1557.16 1410.36 1551.43 L1410.36 1550.12 L1404.53 1550.12 M1416.21 1547.71 L1416.21 1568.04 L1410.36 1568.04 L1410.36 1562.63 Q1408.35 1565.88 1405.36 1567.44 Q1402.37 1568.97 1398.04 1568.97 Q1392.57 1568.97 1389.32 1565.91 Q1386.11 1562.82 1386.11 1557.67 Q1386.11 1551.65 1390.12 1548.6 Q1394.16 1545.54 1402.15 1545.54 L1410.36 1545.54 L1410.36 1544.97 Q1410.36 1540.93 1407.68 1538.73 Q1405.04 1536.5 1400.24 1536.5 Q1397.18 1536.5 1394.29 1537.23 Q1391.39 1537.97 1388.72 1539.43 L1388.72 1534.02 Q1391.93 1532.78 1394.95 1532.17 Q1397.98 1531.54 1400.84 1531.54 Q1408.58 1531.54 1412.4 1535.55 Q1416.21 1539.56 1416.21 1547.71 Z" fill="#000000" fill-rule="evenodd" fill-opacity="1"></path><path clip-path="url(#clip850)" d="M1434.07 1522.27 L1434.07 1532.4 L1446.13 1532.4 L1446.13 1536.95 L1434.07 1536.95 L1434.07 1556.3 Q1434.07 1560.66 1435.25 1561.9 Q1436.46 1563.14 1440.12 1563.14 L1446.13 1563.14 L1446.13 1568.04 L1440.12 1568.04 Q1433.34 1568.04 1430.76 1565.53 Q1428.18 1562.98 1428.18 1556.3 L1428.18 1536.95 L1423.89 1536.95 L1423.89 1532.4 L1428.18 1532.4 L1428.18 1522.27 L1434.07 1522.27 Z" fill="#000000" fill-rule="evenodd" fill-opacity="1"></path><path clip-path="url(#clip850)" d="M1453.84 1532.4 L1459.69 1532.4 L1459.69 1568.04 L1453.84 1568.04 L1453.84 1532.4 M1453.84 1518.52 L1459.69 1518.52 L1459.69 1525.93 L1453.84 1525.93 L1453.84 1518.52 Z" fill="#000000" fill-rule="evenodd" fill-opacity="1"></path><path clip-path="url(#clip850)" d="M1485.76 1536.5 Q1481.05 1536.5 1478.31 1540.19 Q1475.58 1543.85 1475.58 1550.25 Q1475.58 1556.65 1478.28 1560.34 Q1481.02 1564 1485.76 1564 Q1490.44 1564 1493.18 1560.31 Q1495.91 1556.62 1495.91 1550.25 Q1495.91 1543.92 1493.18 1540.23 Q1490.44 1536.5 1485.76 1536.5 M1485.76 1531.54 Q1493.4 1531.54 1497.76 1536.5 Q1502.12 1541.47 1502.12 1550.25 Q1502.12 1559 1497.76 1564 Q1493.4 1568.97 1485.76 1568.97 Q1478.09 1568.97 1473.73 1564 Q1469.4 1559 1469.4 1550.25 Q1469.4 1541.47 1473.73 1536.5 Q1478.09 1531.54 1485.76 1531.54 Z" fill="#000000" fill-rule="evenodd" fill-opacity="1"></path><path clip-path="url(#clip850)" d="M1541.46 1546.53 L1541.46 1568.04 L1535.6 1568.04 L1535.6 1546.72 Q1535.6 1541.66 1533.63 1539.14 Q1531.66 1536.63 1527.71 1536.63 Q1522.97 1536.63 1520.23 1539.65 Q1517.49 1542.68 1517.49 1547.9 L1517.49 1568.04 L1511.61 1568.04 L1511.61 1532.4 L1517.49 1532.4 L1517.49 1537.93 Q1519.59 1534.72 1522.43 1533.13 Q1525.29 1531.54 1529.02 1531.54 Q1535.16 1531.54 1538.31 1535.36 Q1541.46 1539.14 1541.46 1546.53 Z" fill="#000000" fill-rule="evenodd" fill-opacity="1"></path><polyline clip-path="url(#clip852)" style="stroke:#000000; stroke-linecap:butt; stroke-linejoin:round; stroke-width:2; stroke-opacity:0.1; fill:none" points="
  222.69,1258.31 2352.76,1258.31 
  "></polyline>
<polyline clip-path="url(#clip852)" style="stroke:#000000; stroke-linecap:butt; stroke-linejoin:round; stroke-width:2; stroke-opacity:0.1; fill:none" points="
  222.69,758.242 2352.76,758.242 
  "></polyline>
<polyline clip-path="url(#clip852)" style="stroke:#000000; stroke-linecap:butt; stroke-linejoin:round; stroke-width:2; stroke-opacity:0.1; fill:none" points="
  222.69,258.171 2352.76,258.171 
  "></polyline>
<polyline clip-path="url(#clip850)" style="stroke:#000000; stroke-linecap:butt; stroke-linejoin:round; stroke-width:4; stroke-opacity:1; fill:none" points="
  222.69,1423.18 222.69,47.2441 
  "></polyline>
<polyline clip-path="url(#clip850)" style="stroke:#000000; stroke-linecap:butt; stroke-linejoin:round; stroke-width:4; stroke-opacity:1; fill:none" points="
  222.69,1258.31 241.588,1258.31 
  "></polyline>
<polyline clip-path="url(#clip850)" style="stroke:#000000; stroke-linecap:butt; stroke-linejoin:round; stroke-width:4; stroke-opacity:1; fill:none" points="
  222.69,758.242 241.588,758.242 
  "></polyline>
<polyline clip-path="url(#clip850)" style="stroke:#000000; stroke-linecap:butt; stroke-linejoin:round; stroke-width:4; stroke-opacity:1; fill:none" points="
  222.69,258.171 241.588,258.171 
  "></polyline>
<path clip-path="url(#clip850)" d="M117.565 1278.11 L125.203 1278.11 L125.203 1251.74 L116.893 1253.41 L116.893 1249.15 L125.157 1247.48 L129.833 1247.48 L129.833 1278.11 L137.472 1278.11 L137.472 1282.04 L117.565 1282.04 L117.565 1278.11 Z" fill="#000000" fill-rule="evenodd" fill-opacity="1"></path><path clip-path="url(#clip850)" d="M156.916 1250.56 Q153.305 1250.56 151.476 1254.13 Q149.671 1257.67 149.671 1264.8 Q149.671 1271.9 151.476 1275.47 Q153.305 1279.01 156.916 1279.01 Q160.55 1279.01 162.356 1275.47 Q164.185 1271.9 164.185 1264.8 Q164.185 1257.67 162.356 1254.13 Q160.55 1250.56 156.916 1250.56 M156.916 1246.86 Q162.726 1246.86 165.782 1251.46 Q168.861 1256.05 168.861 1264.8 Q168.861 1273.52 165.782 1278.13 Q162.726 1282.71 156.916 1282.71 Q151.106 1282.71 148.027 1278.13 Q144.972 1273.52 144.972 1264.8 Q144.972 1256.05 148.027 1251.46 Q151.106 1246.86 156.916 1246.86 Z" fill="#000000" fill-rule="evenodd" fill-opacity="1"></path><path clip-path="url(#clip850)" d="M173.431 1251.43 L186.69 1251.43 L186.69 1254.63 L168.861 1254.63 L168.861 1251.43 Q171.023 1249.2 174.747 1245.43 Q178.49 1241.65 179.449 1240.56 Q181.274 1238.51 181.988 1237.1 Q182.722 1235.67 182.722 1234.3 Q182.722 1232.06 181.142 1230.65 Q179.581 1229.24 177.061 1229.24 Q175.274 1229.24 173.28 1229.86 Q171.306 1230.48 169.049 1231.74 L169.049 1227.91 Q171.343 1226.98 173.337 1226.51 Q175.33 1226.04 176.986 1226.04 Q181.349 1226.04 183.944 1228.23 Q186.54 1230.41 186.54 1234.06 Q186.54 1235.79 185.882 1237.35 Q185.242 1238.89 183.531 1241 Q183.06 1241.54 180.54 1244.16 Q178.02 1246.75 173.431 1251.43 Z" fill="#000000" fill-rule="evenodd" fill-opacity="1"></path><path clip-path="url(#clip850)" d="M116.906 778.035 L124.545 778.035 L124.545 751.669 L116.235 753.336 L116.235 749.077 L124.499 747.41 L129.175 747.41 L129.175 778.035 L136.814 778.035 L136.814 781.97 L116.906 781.97 L116.906 778.035 Z" fill="#000000" fill-rule="evenodd" fill-opacity="1"></path><path clip-path="url(#clip850)" d="M156.258 750.489 Q152.647 750.489 150.818 754.053 Q149.013 757.595 149.013 764.725 Q149.013 771.831 150.818 775.396 Q152.647 778.938 156.258 778.938 Q159.892 778.938 161.698 775.396 Q163.526 771.831 163.526 764.725 Q163.526 757.595 161.698 754.053 Q159.892 750.489 156.258 750.489 M156.258 746.785 Q162.068 746.785 165.124 751.391 Q168.202 755.975 168.202 764.725 Q168.202 773.452 165.124 778.058 Q162.068 782.641 156.258 782.641 Q150.448 782.641 147.369 778.058 Q144.314 773.452 144.314 764.725 Q144.314 755.975 147.369 751.391 Q150.448 746.785 156.258 746.785 Z" fill="#000000" fill-rule="evenodd" fill-opacity="1"></path><path clip-path="url(#clip850)" d="M180.898 739.419 Q183.625 740.002 185.148 741.846 Q186.69 743.689 186.69 746.397 Q186.69 750.554 183.832 752.829 Q180.973 755.105 175.707 755.105 Q173.939 755.105 172.058 754.748 Q170.196 754.409 168.202 753.713 L168.202 750.046 Q169.782 750.967 171.663 751.437 Q173.544 751.908 175.594 751.908 Q179.167 751.908 181.029 750.497 Q182.91 749.087 182.91 746.397 Q182.91 743.914 181.161 742.523 Q179.431 741.112 176.327 741.112 L173.055 741.112 L173.055 737.99 L176.478 737.99 Q179.28 737.99 180.766 736.88 Q182.252 735.752 182.252 733.645 Q182.252 731.482 180.709 730.335 Q179.186 729.169 176.327 729.169 Q174.766 729.169 172.979 729.508 Q171.193 729.846 169.049 730.561 L169.049 727.175 Q171.212 726.574 173.092 726.273 Q174.992 725.972 176.666 725.972 Q180.992 725.972 183.512 727.947 Q186.032 729.903 186.032 733.25 Q186.032 735.583 184.697 737.2 Q183.361 738.799 180.898 739.419 Z" fill="#000000" fill-rule="evenodd" fill-opacity="1"></path><path clip-path="url(#clip850)" d="M114.931 277.963 L122.57 277.963 L122.57 251.597 L114.26 253.264 L114.26 249.005 L122.524 247.338 L127.2 247.338 L127.2 277.963 L134.839 277.963 L134.839 281.898 L114.931 281.898 L114.931 277.963 Z" fill="#000000" fill-rule="evenodd" fill-opacity="1"></path><path clip-path="url(#clip850)" d="M154.283 250.417 Q150.672 250.417 148.843 253.982 Q147.038 257.523 147.038 264.653 Q147.038 271.759 148.843 275.324 Q150.672 278.866 154.283 278.866 Q157.917 278.866 159.723 275.324 Q161.552 271.759 161.552 264.653 Q161.552 257.523 159.723 253.982 Q157.917 250.417 154.283 250.417 M154.283 246.713 Q160.093 246.713 163.149 251.32 Q166.227 255.903 166.227 264.653 Q166.227 273.38 163.149 277.986 Q160.093 282.569 154.283 282.569 Q148.473 282.569 145.394 277.986 Q142.339 273.38 142.339 264.653 Q142.339 255.903 145.394 251.32 Q148.473 246.713 154.283 246.713 Z" fill="#000000" fill-rule="evenodd" fill-opacity="1"></path><path clip-path="url(#clip850)" d="M178.904 229.718 L169.312 244.708 L178.904 244.708 L178.904 229.718 M177.907 226.408 L182.684 226.408 L182.684 244.708 L186.69 244.708 L186.69 247.867 L182.684 247.867 L182.684 254.488 L178.904 254.488 L178.904 247.867 L166.227 247.867 L166.227 244.2 L177.907 226.408 Z" fill="#000000" fill-rule="evenodd" fill-opacity="1"></path><path clip-path="url(#clip850)" d="M16.4842 1224.24 L16.4842 1215.58 L56.238 1194.51 L16.4842 1194.51 L16.4842 1188.28 L64.0042 1188.28 L64.0042 1196.93 L24.2503 1218 L64.0042 1218 L64.0042 1224.24 L16.4842 1224.24 Z" fill="#000000" fill-rule="evenodd" fill-opacity="1"></path><path clip-path="url(#clip850)" d="M49.9359 1176.34 L28.3562 1176.34 L28.3562 1170.48 L49.7131 1170.48 Q54.7739 1170.48 57.3202 1168.51 Q59.8346 1166.54 59.8346 1162.59 Q59.8346 1157.85 56.8109 1155.11 Q53.7872 1152.34 48.5673 1152.34 L28.3562 1152.34 L28.3562 1146.48 L64.0042 1146.48 L64.0042 1152.34 L58.5296 1152.34 Q61.7762 1154.47 63.3676 1157.31 Q64.9272 1160.11 64.9272 1163.83 Q64.9272 1169.97 61.1078 1173.16 Q57.2883 1176.34 49.9359 1176.34 M27.4968 1161.6 L27.4968 1161.6 Z" fill="#000000" fill-rule="evenodd" fill-opacity="1"></path><path clip-path="url(#clip850)" d="M35.1993 1106.67 Q31.2526 1104.47 29.3747 1101.42 Q27.4968 1098.36 27.4968 1094.22 Q27.4968 1088.65 31.4117 1085.63 Q35.2948 1082.6 42.4881 1082.6 L64.0042 1082.6 L64.0042 1088.49 L42.679 1088.49 Q37.5546 1088.49 35.072 1090.31 Q32.5894 1092.12 32.5894 1095.85 Q32.5894 1100.4 35.6131 1103.04 Q38.6368 1105.68 43.8567 1105.68 L64.0042 1105.68 L64.0042 1111.57 L42.679 1111.57 Q37.5228 1111.57 35.072 1113.38 Q32.5894 1115.2 32.5894 1118.98 Q32.5894 1123.47 35.6449 1126.11 Q38.6686 1128.76 43.8567 1128.76 L64.0042 1128.76 L64.0042 1134.64 L28.3562 1134.64 L28.3562 1128.76 L33.8944 1128.76 Q30.616 1126.75 29.0564 1123.95 Q27.4968 1121.15 27.4968 1117.3 Q27.4968 1113.41 29.4702 1110.71 Q31.4436 1107.97 35.1993 1106.67 Z" fill="#000000" fill-rule="evenodd" fill-opacity="1"></path><path clip-path="url(#clip850)" d="M46.212 1045.33 Q39.7508 1045.33 36.0905 1048.01 Q32.3984 1050.65 32.3984 1055.3 Q32.3984 1059.94 36.0905 1062.62 Q39.7508 1065.26 46.212 1065.26 Q52.6732 1065.26 56.3653 1062.62 Q60.0256 1059.94 60.0256 1055.3 Q60.0256 1050.65 56.3653 1048.01 Q52.6732 1045.33 46.212 1045.33 M33.7671 1065.26 Q30.5842 1063.41 29.0564 1060.61 Q27.4968 1057.78 27.4968 1053.86 Q27.4968 1047.37 32.6531 1043.33 Q37.8093 1039.25 46.212 1039.25 Q54.6147 1039.25 59.771 1043.33 Q64.9272 1047.37 64.9272 1053.86 Q64.9272 1057.78 63.3994 1060.61 Q61.8398 1063.41 58.657 1065.26 L64.0042 1065.26 L64.0042 1071.15 L14.479 1071.15 L14.479 1065.26 L33.7671 1065.26 Z" fill="#000000" fill-rule="evenodd" fill-opacity="1"></path><path clip-path="url(#clip850)" d="M44.7161 999.055 L47.5806 999.055 L47.5806 1025.98 Q53.6281 1025.6 56.8109 1022.35 Q59.9619 1019.07 59.9619 1013.25 Q59.9619 1009.88 59.1344 1006.73 Q58.3069 1003.54 56.6518 1000.42 L62.1899 1000.42 Q63.5267 1003.57 64.227 1006.88 Q64.9272 1010.19 64.9272 1013.6 Q64.9272 1022.13 59.9619 1027.13 Q54.9967 1032.09 46.5303 1032.09 Q37.7774 1032.09 32.6531 1027.38 Q27.4968 1022.64 27.4968 1014.62 Q27.4968 1007.43 32.1438 1003.26 Q36.7589 999.055 44.7161 999.055 M42.9973 1004.91 Q38.1912 1004.97 35.3266 1007.62 Q32.4621 1010.23 32.4621 1014.56 Q32.4621 1019.46 35.2312 1022.42 Q38.0002 1025.34 43.0292 1025.79 L42.9973 1004.91 Z" fill="#000000" fill-rule="evenodd" fill-opacity="1"></path><path clip-path="url(#clip850)" d="M33.8307 968.786 Q33.2578 969.772 33.0032 970.95 Q32.7167 972.096 32.7167 973.496 Q32.7167 978.462 35.9632 981.135 Q39.1779 983.777 45.2253 983.777 L64.0042 983.777 L64.0042 989.665 L28.3562 989.665 L28.3562 983.777 L33.8944 983.777 Q30.6479 981.931 29.0883 978.971 Q27.4968 976.011 27.4968 971.778 Q27.4968 971.173 27.5923 970.441 Q27.656 969.709 27.8151 968.817 L33.8307 968.786 Z" fill="#000000" fill-rule="evenodd" fill-opacity="1"></path><path clip-path="url(#clip850)" d="M32.4621 928.109 Q32.4621 932.819 36.1542 935.557 Q39.8145 938.294 46.212 938.294 Q52.6095 938.294 56.3017 935.588 Q59.9619 932.851 59.9619 928.109 Q59.9619 923.43 56.2698 920.693 Q52.5777 917.955 46.212 917.955 Q39.8781 917.955 36.186 920.693 Q32.4621 923.43 32.4621 928.109 M27.4968 928.109 Q27.4968 920.47 32.4621 916.109 Q37.4273 911.749 46.212 911.749 Q54.9649 911.749 59.9619 916.109 Q64.9272 920.47 64.9272 928.109 Q64.9272 935.779 59.9619 940.14 Q54.9649 944.469 46.212 944.469 Q37.4273 944.469 32.4621 940.14 Q27.4968 935.779 27.4968 928.109 Z" fill="#000000" fill-rule="evenodd" fill-opacity="1"></path><path clip-path="url(#clip850)" d="M14.479 883.994 L19.3487 883.994 L19.3487 889.596 Q19.3487 892.747 20.6219 893.989 Q21.895 895.198 25.2052 895.198 L28.3562 895.198 L28.3562 885.554 L32.9077 885.554 L32.9077 895.198 L64.0042 895.198 L64.0042 901.086 L32.9077 901.086 L32.9077 906.688 L28.3562 906.688 L28.3562 901.086 L25.8736 901.086 Q19.9216 901.086 17.2162 898.317 Q14.479 895.548 14.479 889.533 L14.479 883.994 Z" fill="#000000" fill-rule="evenodd" fill-opacity="1"></path><path clip-path="url(#clip850)" d="M29.4065 835.647 L34.9447 835.647 Q33.6716 838.13 33.035 840.803 Q32.3984 843.477 32.3984 846.341 Q32.3984 850.702 33.7352 852.898 Q35.072 855.062 37.7456 855.062 Q39.7826 855.062 40.9603 853.503 Q42.1061 851.943 43.1565 847.232 L43.6021 845.227 Q44.9389 838.989 47.3897 836.379 Q49.8086 833.737 54.1691 833.737 Q59.1344 833.737 62.0308 837.684 Q64.9272 841.599 64.9272 848.474 Q64.9272 851.338 64.3543 854.458 Q63.8132 857.545 62.6992 860.982 L56.6518 860.982 Q58.3387 857.736 59.198 854.585 Q60.0256 851.434 60.0256 848.346 Q60.0256 844.209 58.6251 841.981 Q57.1929 839.753 54.6147 839.753 Q52.2276 839.753 50.9545 841.376 Q49.6813 842.967 48.5037 848.41 L48.0262 850.447 Q46.8804 855.89 44.5251 858.309 Q42.138 860.728 38.0002 860.728 Q32.9713 860.728 30.2341 857.163 Q27.4968 853.598 27.4968 847.042 Q27.4968 843.795 27.9743 840.93 Q28.4517 838.066 29.4065 835.647 Z" fill="#000000" fill-rule="evenodd" fill-opacity="1"></path><path clip-path="url(#clip850)" d="M18.2347 818.619 L28.3562 818.619 L28.3562 806.556 L32.9077 806.556 L32.9077 818.619 L52.2594 818.619 Q56.6199 818.619 57.8613 817.441 Q59.1026 816.231 59.1026 812.571 L59.1026 806.556 L64.0042 806.556 L64.0042 812.571 Q64.0042 819.351 61.4897 821.929 Q58.9434 824.507 52.2594 824.507 L32.9077 824.507 L32.9077 828.804 L28.3562 828.804 L28.3562 824.507 L18.2347 824.507 L18.2347 818.619 Z" fill="#000000" fill-rule="evenodd" fill-opacity="1"></path><path clip-path="url(#clip850)" d="M44.7161 768.361 L47.5806 768.361 L47.5806 795.288 Q53.6281 794.906 56.8109 791.66 Q59.9619 788.382 59.9619 782.557 Q59.9619 779.183 59.1344 776.032 Q58.3069 772.849 56.6518 769.73 L62.1899 769.73 Q63.5267 772.881 64.227 776.191 Q64.9272 779.501 64.9272 782.907 Q64.9272 791.437 59.9619 796.434 Q54.9967 801.399 46.5303 801.399 Q37.7774 801.399 32.6531 796.689 Q27.4968 791.946 27.4968 783.926 Q27.4968 776.732 32.1438 772.563 Q36.7589 768.361 44.7161 768.361 M42.9973 774.218 Q38.1912 774.281 35.3266 776.923 Q32.4621 779.533 32.4621 783.862 Q32.4621 788.763 35.2312 791.724 Q38.0002 794.652 43.0292 795.097 L42.9973 774.218 Z" fill="#000000" fill-rule="evenodd" fill-opacity="1"></path><path clip-path="url(#clip850)" d="M58.657 753.084 L77.5631 753.084 L77.5631 758.972 L28.3562 758.972 L28.3562 753.084 L33.7671 753.084 Q30.5842 751.238 29.0564 748.437 Q27.4968 745.604 27.4968 741.689 Q27.4968 735.196 32.6531 731.154 Q37.8093 727.08 46.212 727.08 Q54.6147 727.08 59.771 731.154 Q64.9272 735.196 64.9272 741.689 Q64.9272 745.604 63.3994 748.437 Q61.8398 751.238 58.657 753.084 M46.212 733.159 Q39.7508 733.159 36.0905 735.833 Q32.3984 738.474 32.3984 743.121 Q32.3984 747.768 36.0905 750.442 Q39.7508 753.084 46.212 753.084 Q52.6732 753.084 56.3653 750.442 Q60.0256 747.768 60.0256 743.121 Q60.0256 738.474 56.3653 735.833 Q52.6732 733.159 46.212 733.159 Z" fill="#000000" fill-rule="evenodd" fill-opacity="1"></path><path clip-path="url(#clip850)" d="M29.4065 694.647 L34.9447 694.647 Q33.6716 697.129 33.035 699.803 Q32.3984 702.476 32.3984 705.341 Q32.3984 709.701 33.7352 711.898 Q35.072 714.062 37.7456 714.062 Q39.7826 714.062 40.9603 712.502 Q42.1061 710.943 43.1565 706.232 L43.6021 704.227 Q44.9389 697.988 47.3897 695.379 Q49.8086 692.737 54.1691 692.737 Q59.1344 692.737 62.0308 696.684 Q64.9272 700.598 64.9272 707.473 Q64.9272 710.338 64.3543 713.457 Q63.8132 716.545 62.6992 719.982 L56.6518 719.982 Q58.3387 716.736 59.198 713.584 Q60.0256 710.433 60.0256 707.346 Q60.0256 703.208 58.6251 700.98 Q57.1929 698.752 54.6147 698.752 Q52.2276 698.752 50.9545 700.376 Q49.6813 701.967 48.5037 707.41 L48.0262 709.447 Q46.8804 714.889 44.5251 717.308 Q42.138 719.727 38.0002 719.727 Q32.9713 719.727 30.2341 716.163 Q27.4968 712.598 27.4968 706.041 Q27.4968 702.795 27.9743 699.93 Q28.4517 697.065 29.4065 694.647 Z" fill="#000000" fill-rule="evenodd" fill-opacity="1"></path><path clip-path="url(#clip850)" d="M18.2347 656.898 L28.3562 656.898 L28.3562 644.835 L32.9077 644.835 L32.9077 656.898 L52.2594 656.898 Q56.6199 656.898 57.8613 655.72 Q59.1026 654.511 59.1026 650.85 L59.1026 644.835 L64.0042 644.835 L64.0042 650.85 Q64.0042 657.63 61.4897 660.208 Q58.9434 662.786 52.2594 662.786 L32.9077 662.786 L32.9077 667.083 L28.3562 667.083 L28.3562 662.786 L18.2347 662.786 L18.2347 656.898 Z" fill="#000000" fill-rule="evenodd" fill-opacity="1"></path><path clip-path="url(#clip850)" d="M32.4621 623.319 Q32.4621 628.029 36.1542 630.767 Q39.8145 633.504 46.212 633.504 Q52.6095 633.504 56.3017 630.798 Q59.9619 628.061 59.9619 623.319 Q59.9619 618.64 56.2698 615.903 Q52.5777 613.165 46.212 613.165 Q39.8781 613.165 36.186 615.903 Q32.4621 618.64 32.4621 623.319 M27.4968 623.319 Q27.4968 615.68 32.4621 611.319 Q37.4273 606.959 46.212 606.959 Q54.9649 606.959 59.9619 611.319 Q64.9272 615.68 64.9272 623.319 Q64.9272 630.989 59.9619 635.35 Q54.9649 639.679 46.212 639.679 Q37.4273 639.679 32.4621 635.35 Q27.4968 630.989 27.4968 623.319 Z" fill="#000000" fill-rule="evenodd" fill-opacity="1"></path><path clip-path="url(#clip850)" d="M33.8307 555.874 Q33.2578 556.861 33.0032 558.038 Q32.7167 559.184 32.7167 560.585 Q32.7167 565.55 35.9632 568.224 Q39.1779 570.865 45.2253 570.865 L64.0042 570.865 L64.0042 576.754 L28.3562 576.754 L28.3562 570.865 L33.8944 570.865 Q30.6479 569.019 29.0883 566.059 Q27.4968 563.099 27.4968 558.866 Q27.4968 558.261 27.5923 557.529 Q27.656 556.797 27.8151 555.906 L33.8307 555.874 Z" fill="#000000" fill-rule="evenodd" fill-opacity="1"></path><path clip-path="url(#clip850)" d="M44.7161 520.672 L47.5806 520.672 L47.5806 547.599 Q53.6281 547.217 56.8109 543.97 Q59.9619 540.692 59.9619 534.867 Q59.9619 531.493 59.1344 528.342 Q58.3069 525.16 56.6518 522.04 L62.1899 522.04 Q63.5267 525.191 64.227 528.502 Q64.9272 531.812 64.9272 535.217 Q64.9272 543.747 59.9619 548.745 Q54.9967 553.71 46.5303 553.71 Q37.7774 553.71 32.6531 548.999 Q27.4968 544.257 27.4968 536.236 Q27.4968 529.043 32.1438 524.873 Q36.7589 520.672 44.7161 520.672 M42.9973 526.528 Q38.1912 526.592 35.3266 529.234 Q32.4621 531.844 32.4621 536.172 Q32.4621 541.074 35.2312 544.034 Q38.0002 546.962 43.0292 547.408 L42.9973 526.528 Z" fill="#000000" fill-rule="evenodd" fill-opacity="1"></path><path clip-path="url(#clip850)" d="M46.0847 494.859 Q46.0847 501.957 47.7079 504.694 Q49.3312 507.431 53.2461 507.431 Q56.3653 507.431 58.2114 505.394 Q60.0256 503.325 60.0256 499.792 Q60.0256 494.922 56.5881 491.994 Q53.1188 489.034 47.3897 489.034 L46.0847 489.034 L46.0847 494.859 M43.6657 483.178 L64.0042 483.178 L64.0042 489.034 L58.5933 489.034 Q61.8398 491.039 63.3994 494.031 Q64.9272 497.023 64.9272 501.352 Q64.9272 506.826 61.8716 510.073 Q58.7843 513.288 53.6281 513.288 Q47.6125 513.288 44.5569 509.277 Q41.5014 505.235 41.5014 497.246 L41.5014 489.034 L40.9285 489.034 Q36.8862 489.034 34.6901 491.708 Q32.4621 494.35 32.4621 499.156 Q32.4621 502.211 33.1941 505.108 Q33.9262 508.004 35.3903 510.678 L29.9795 510.678 Q28.7381 507.463 28.1334 504.439 Q27.4968 501.415 27.4968 498.551 Q27.4968 490.817 31.5072 486.997 Q35.5176 483.178 43.6657 483.178 Z" fill="#000000" fill-rule="evenodd" fill-opacity="1"></path><path clip-path="url(#clip850)" d="M29.7248 445.461 L35.1993 445.461 Q33.8307 447.944 33.1623 450.458 Q32.4621 452.941 32.4621 455.487 Q32.4621 461.184 36.0905 464.335 Q39.6872 467.486 46.212 467.486 Q52.7369 467.486 56.3653 464.335 Q59.9619 461.184 59.9619 455.487 Q59.9619 452.941 59.2935 450.458 Q58.5933 447.944 57.2247 445.461 L62.6355 445.461 Q63.7814 447.912 64.3543 450.553 Q64.9272 453.163 64.9272 456.123 Q64.9272 464.176 59.8664 468.919 Q54.8057 473.661 46.212 473.661 Q37.491 473.661 32.4939 468.887 Q27.4968 464.081 27.4968 455.742 Q27.4968 453.036 28.0697 450.458 Q28.6108 447.88 29.7248 445.461 Z" fill="#000000" fill-rule="evenodd" fill-opacity="1"></path><path clip-path="url(#clip850)" d="M42.4881 405.643 L64.0042 405.643 L64.0042 411.5 L42.679 411.5 Q37.6183 411.5 35.1038 413.473 Q32.5894 415.447 32.5894 419.393 Q32.5894 424.136 35.6131 426.873 Q38.6368 429.61 43.8567 429.61 L64.0042 429.61 L64.0042 435.499 L14.479 435.499 L14.479 429.61 L33.8944 429.61 Q30.6797 427.51 29.0883 424.677 Q27.4968 421.812 27.4968 418.088 Q27.4968 411.945 31.3163 408.794 Q35.1038 405.643 42.4881 405.643 Z" fill="#000000" fill-rule="evenodd" fill-opacity="1"></path><path clip-path="url(#clip850)" d="M45.7664 349.784 Q39.4007 349.784 35.8996 352.426 Q32.3984 355.036 32.3984 359.779 Q32.3984 364.489 35.8996 367.131 Q39.4007 369.741 45.7664 369.741 Q52.1003 369.741 55.6014 367.131 Q59.1026 364.489 59.1026 359.779 Q59.1026 355.036 55.6014 352.426 Q52.1003 349.784 45.7664 349.784 M59.58 343.928 Q68.683 343.928 73.1071 347.97 Q77.5631 352.012 77.5631 360.351 Q77.5631 363.439 77.0857 366.176 Q76.6401 368.913 75.6852 371.491 L69.9879 371.491 Q71.3884 368.913 72.0568 366.399 Q72.7252 363.884 72.7252 361.274 Q72.7252 355.513 69.7015 352.649 Q66.7096 349.784 60.6303 349.784 L57.7339 349.784 Q60.885 351.599 62.4446 354.431 Q64.0042 357.264 64.0042 361.211 Q64.0042 367.767 59.0071 371.778 Q54.01 375.788 45.7664 375.788 Q37.491 375.788 32.4939 371.778 Q27.4968 367.767 27.4968 361.211 Q27.4968 357.264 29.0564 354.431 Q30.616 351.599 33.7671 349.784 L28.3562 349.784 L28.3562 343.928 L59.58 343.928 Z" fill="#000000" fill-rule="evenodd" fill-opacity="1"></path><path clip-path="url(#clip850)" d="M32.4621 318.051 Q32.4621 322.762 36.1542 325.499 Q39.8145 328.236 46.212 328.236 Q52.6095 328.236 56.3017 325.531 Q59.9619 322.794 59.9619 318.051 Q59.9619 313.373 56.2698 310.635 Q52.5777 307.898 46.212 307.898 Q39.8781 307.898 36.186 310.635 Q32.4621 313.373 32.4621 318.051 M27.4968 318.051 Q27.4968 310.412 32.4621 306.052 Q37.4273 301.691 46.212 301.691 Q54.9649 301.691 59.9619 306.052 Q64.9272 310.412 64.9272 318.051 Q64.9272 325.722 59.9619 330.082 Q54.9649 334.411 46.212 334.411 Q37.4273 334.411 32.4621 330.082 Q27.4968 325.722 27.4968 318.051 Z" fill="#000000" fill-rule="evenodd" fill-opacity="1"></path><path clip-path="url(#clip850)" d="M46.0847 275.783 Q46.0847 282.881 47.7079 285.618 Q49.3312 288.355 53.2461 288.355 Q56.3653 288.355 58.2114 286.318 Q60.0256 284.249 60.0256 280.716 Q60.0256 275.847 56.5881 272.918 Q53.1188 269.958 47.3897 269.958 L46.0847 269.958 L46.0847 275.783 M43.6657 264.102 L64.0042 264.102 L64.0042 269.958 L58.5933 269.958 Q61.8398 271.964 63.3994 274.955 Q64.9272 277.947 64.9272 282.276 Q64.9272 287.751 61.8716 290.997 Q58.7843 294.212 53.6281 294.212 Q47.6125 294.212 44.5569 290.201 Q41.5014 286.159 41.5014 278.17 L41.5014 269.958 L40.9285 269.958 Q36.8862 269.958 34.6901 272.632 Q32.4621 275.274 32.4621 280.08 Q32.4621 283.135 33.1941 286.032 Q33.9262 288.928 35.3903 291.602 L29.9795 291.602 Q28.7381 288.387 28.1334 285.363 Q27.4968 282.34 27.4968 279.475 Q27.4968 271.741 31.5072 267.921 Q35.5176 264.102 43.6657 264.102 Z" fill="#000000" fill-rule="evenodd" fill-opacity="1"></path><path clip-path="url(#clip850)" d="M14.479 252.039 L14.479 246.182 L64.0042 246.182 L64.0042 252.039 L14.479 252.039 Z" fill="#000000" fill-rule="evenodd" fill-opacity="1"></path><polyline clip-path="url(#clip852)" style="stroke:#009af9; stroke-linecap:butt; stroke-linejoin:round; stroke-width:12; stroke-opacity:1; fill:none" points="
  282.975,1384.24 388.738,1380.39 494.501,1376.62 600.264,1372.9 706.027,1369.25 811.79,1365.66 917.553,1055.87 1023.32,1332.7 1129.08,1182.16 1234.84,1183.69 
  1340.6,1179.12 1446.37,1056.72 1552.13,999.679 1657.89,730.549 1763.66,708.74 1869.42,86.1857 1975.18,86.1857 2080.95,86.1857 2186.71,86.1857 2292.47,86.1857 
  
  "></polyline>
<polyline clip-path="url(#clip852)" style="stroke:#e26f46; stroke-linecap:butt; stroke-linejoin:round; stroke-width:12; stroke-opacity:1; fill:none" points="
  282.975,1384.24 388.738,1380.39 494.501,1376.62 600.264,1372.9 706.027,1369.25 811.79,1365.66 917.553,1057.59 1023.32,1332.7 1129.08,1182.16 1234.84,1183.69 
  1340.6,1179.12 1446.37,1056.72 1552.13,999.679 1657.89,821.01 1763.66,379.452 1869.42,783.795 1975.18,783.795 2080.95,783.795 2186.71,783.795 2292.47,783.795 
  
  "></polyline>
<polyline clip-path="url(#clip852)" style="stroke:#3da44d; stroke-linecap:butt; stroke-linejoin:round; stroke-width:12; stroke-opacity:1; fill:none" points="
  282.975,1384.24 388.738,1380.39 494.501,1372.9 600.264,1372.9 706.027,1369.25 811.79,1362.13 917.553,1154.89 1023.32,1146.94 1129.08,1122.37 1234.84,1180.64 
  1340.6,1163.13 1446.37,928.309 1552.13,968.953 1657.89,978.321 1763.66,978.321 1869.42,978.321 1975.18,978.321 2080.95,978.321 2186.71,978.321 2292.47,978.321 
  
  "></polyline>
<path clip-path="url(#clip850)" d="
M1906.49 300.469 L2281.75 300.469 L2281.75 93.1086 L1906.49 93.1086  Z
  " fill="#ffffff" fill-rule="evenodd" fill-opacity="1"></path>
<polyline clip-path="url(#clip850)" style="stroke:#000000; stroke-linecap:butt; stroke-linejoin:round; stroke-width:4; stroke-opacity:1; fill:none" points="
  1906.49,300.469 2281.75,300.469 2281.75,93.1086 1906.49,93.1086 1906.49,300.469 
  "></polyline>
<polyline clip-path="url(#clip850)" style="stroke:#009af9; stroke-linecap:butt; stroke-linejoin:round; stroke-width:4; stroke-opacity:1; fill:none" points="
  1930.16,144.949 2072.16,144.949 
  "></polyline>
<path clip-path="url(#clip850)" d="M2112.22 146.025 Q2113.73 146.534 2115.14 148.201 Q2116.57 149.868 2118.01 152.784 L2122.75 162.229 L2117.73 162.229 L2113.31 153.363 Q2111.6 149.891 2109.98 148.756 Q2108.38 147.622 2105.6 147.622 L2100.51 147.622 L2100.51 162.229 L2095.83 162.229 L2095.83 127.669 L2106.39 127.669 Q2112.31 127.669 2115.23 130.145 Q2118.15 132.622 2118.15 137.622 Q2118.15 140.886 2116.62 143.039 Q2115.11 145.192 2112.22 146.025 M2100.51 131.511 L2100.51 143.78 L2106.39 143.78 Q2109.77 143.78 2111.48 142.229 Q2113.22 140.655 2113.22 137.622 Q2113.22 134.59 2111.48 133.062 Q2109.77 131.511 2106.39 131.511 L2100.51 131.511 Z" fill="#000000" fill-rule="evenodd" fill-opacity="1"></path><path clip-path="url(#clip850)" d="M2120.53 127.669 L2149.77 127.669 L2149.77 131.604 L2137.5 131.604 L2137.5 162.229 L2132.8 162.229 L2132.8 131.604 L2120.53 131.604 L2120.53 127.669 Z" fill="#000000" fill-rule="evenodd" fill-opacity="1"></path><path clip-path="url(#clip850)" d="M2162.15 132.275 L2155.81 149.474 L2168.52 149.474 L2162.15 132.275 M2159.51 127.669 L2164.81 127.669 L2177.98 162.229 L2173.12 162.229 L2169.97 153.363 L2154.4 153.363 L2151.25 162.229 L2146.32 162.229 L2159.51 127.669 Z" fill="#000000" fill-rule="evenodd" fill-opacity="1"></path><path clip-path="url(#clip850)" d="M2195.9 132.275 L2189.56 149.474 L2202.27 149.474 L2195.9 132.275 M2193.26 127.669 L2198.56 127.669 L2211.73 162.229 L2206.87 162.229 L2203.72 153.363 L2188.15 153.363 L2185 162.229 L2180.07 162.229 L2193.26 127.669 Z" fill="#000000" fill-rule="evenodd" fill-opacity="1"></path><path clip-path="url(#clip850)" d="M2234.42 133.363 L2226.11 137.854 L2234.42 142.368 L2233.08 144.636 L2225.3 139.937 L2225.3 148.664 L2222.66 148.664 L2222.66 139.937 L2214.88 144.636 L2213.54 142.368 L2221.85 137.854 L2213.54 133.363 L2214.88 131.071 L2222.66 135.77 L2222.66 127.044 L2225.3 127.044 L2225.3 135.77 L2233.08 131.071 L2234.42 133.363 Z" fill="#000000" fill-rule="evenodd" fill-opacity="1"></path><polyline clip-path="url(#clip850)" style="stroke:#e26f46; stroke-linecap:butt; stroke-linejoin:round; stroke-width:4; stroke-opacity:1; fill:none" points="
  1930.16,196.789 2072.16,196.789 
  "></polyline>
<path clip-path="url(#clip850)" d="M2123.7 182.171 L2123.7 187.101 Q2121.34 184.902 2118.66 183.814 Q2115.99 182.726 2112.98 182.726 Q2107.06 182.726 2103.91 186.36 Q2100.76 189.972 2100.76 196.823 Q2100.76 203.652 2103.91 207.286 Q2107.06 210.897 2112.98 210.897 Q2115.99 210.897 2118.66 209.809 Q2121.34 208.721 2123.7 206.522 L2123.7 211.407 Q2121.25 213.073 2118.49 213.907 Q2115.76 214.74 2112.71 214.74 Q2104.86 214.74 2100.35 209.948 Q2095.83 205.133 2095.83 196.823 Q2095.83 188.49 2100.35 183.698 Q2104.86 178.884 2112.71 178.884 Q2115.81 178.884 2118.54 179.717 Q2121.29 180.527 2123.7 182.171 Z" fill="#000000" fill-rule="evenodd" fill-opacity="1"></path><path clip-path="url(#clip850)" d="M2130.92 179.509 L2137.89 179.509 L2146.71 203.027 L2155.58 179.509 L2162.54 179.509 L2162.54 214.069 L2157.98 214.069 L2157.98 183.722 L2149.07 207.425 L2144.37 207.425 L2135.46 183.722 L2135.46 214.069 L2130.92 214.069 L2130.92 179.509 Z" fill="#000000" fill-rule="evenodd" fill-opacity="1"></path><path clip-path="url(#clip850)" d="M2183.38 184.115 L2177.03 201.314 L2189.74 201.314 L2183.38 184.115 M2180.74 179.509 L2186.04 179.509 L2199.21 214.069 L2194.35 214.069 L2191.2 205.203 L2175.62 205.203 L2172.47 214.069 L2167.54 214.069 L2180.74 179.509 Z" fill="#000000" fill-rule="evenodd" fill-opacity="1"></path><path clip-path="url(#clip850)" d="M2202.59 179.509 L2207.61 179.509 L2216.2 192.356 L2224.84 179.509 L2229.86 179.509 L2218.75 196.106 L2230.6 214.069 L2225.58 214.069 L2215.85 199.37 L2206.06 214.069 L2201.02 214.069 L2213.35 195.62 L2202.59 179.509 Z" fill="#000000" fill-rule="evenodd" fill-opacity="1"></path><polyline clip-path="url(#clip850)" style="stroke:#3da44d; stroke-linecap:butt; stroke-linejoin:round; stroke-width:4; stroke-opacity:1; fill:none" points="
  1930.16,248.629 2072.16,248.629 
  "></polyline>
<path clip-path="url(#clip850)" d="M2095.83 231.349 L2125.07 231.349 L2125.07 235.284 L2112.8 235.284 L2112.8 265.909 L2108.1 265.909 L2108.1 235.284 L2095.83 235.284 L2095.83 231.349 Z" fill="#000000" fill-rule="evenodd" fill-opacity="1"></path><path clip-path="url(#clip850)" d="M2137.45 243.964 Q2136.73 243.548 2135.88 243.362 Q2135.04 243.154 2134.03 243.154 Q2130.41 243.154 2128.47 245.515 Q2126.55 247.853 2126.55 252.251 L2126.55 265.909 L2122.27 265.909 L2122.27 239.983 L2126.55 239.983 L2126.55 244.011 Q2127.89 241.649 2130.04 240.515 Q2132.2 239.358 2135.28 239.358 Q2135.72 239.358 2136.25 239.427 Q2136.78 239.474 2137.43 239.589 L2137.45 243.964 Z" fill="#000000" fill-rule="evenodd" fill-opacity="1"></path><path clip-path="url(#clip850)" d="M2141.48 255.677 L2141.48 239.983 L2145.74 239.983 L2145.74 255.515 Q2145.74 259.196 2147.17 261.048 Q2148.61 262.876 2151.48 262.876 Q2154.93 262.876 2156.92 260.677 Q2158.93 258.478 2158.93 254.682 L2158.93 239.983 L2163.19 239.983 L2163.19 265.909 L2158.93 265.909 L2158.93 261.927 Q2157.38 264.288 2155.32 265.446 Q2153.29 266.58 2150.58 266.58 Q2146.11 266.58 2143.79 263.802 Q2141.48 261.024 2141.48 255.677 M2152.2 239.358 L2152.2 239.358 Z" fill="#000000" fill-rule="evenodd" fill-opacity="1"></path><path clip-path="url(#clip850)" d="M2194.14 251.881 L2194.14 253.964 L2174.56 253.964 Q2174.84 258.362 2177.2 260.677 Q2179.58 262.969 2183.82 262.969 Q2186.27 262.969 2188.56 262.367 Q2190.88 261.765 2193.15 260.561 L2193.15 264.589 Q2190.85 265.561 2188.45 266.071 Q2186.04 266.58 2183.56 266.58 Q2177.36 266.58 2173.72 262.969 Q2170.11 259.358 2170.11 253.2 Q2170.11 246.835 2173.54 243.108 Q2176.99 239.358 2182.82 239.358 Q2188.05 239.358 2191.09 242.737 Q2194.14 246.094 2194.14 251.881 M2189.88 250.631 Q2189.84 247.136 2187.91 245.052 Q2186.02 242.969 2182.87 242.969 Q2179.3 242.969 2177.15 244.983 Q2175.02 246.997 2174.7 250.654 L2189.88 250.631 Z" fill="#000000" fill-rule="evenodd" fill-opacity="1"></path></svg>