<svg xmlns="http://www.w3.org/2000/svg" xmlns:xlink="http://www.w3.org/1999/xlink" width="600" height="400" viewBox="0 0 2400 1600">
<defs>
  <clipPath id="clip530">
    <rect x="0" y="0" width="2400" height="1600"></rect>
  </clipPath>
</defs>
<path clip-path="url(#clip530)" d="
M0 1600 L2400 1600 L2400 0 L0 0  Z
  " fill="#ffffff" fill-rule="evenodd" fill-opacity="1"></path>
<defs>
  <clipPath id="clip531">
    <rect x="480" y="0" width="1681" height="1600"></rect>
  </clipPath>
</defs>
<path clip-path="url(#clip530)" d="
M222.69 1423.18 L2352.76 1423.18 L2352.76 47.2441 L222.69 47.2441  Z
  " fill="#ffffff" fill-rule="evenodd" fill-opacity="1"></path>
<defs>
  <clipPath id="clip532">
    <rect x="222" y="47" width="2131" height="1377"></rect>
  </clipPath>
</defs>
<polyline clip-path="url(#clip532)" style="stroke:#000000; stroke-linecap:butt; stroke-linejoin:round; stroke-width:2; stroke-opacity:0.1; fill:none" points="
  282.975,1423.18 282.975,47.2441 
  "></polyline>
<polyline clip-path="url(#clip532)" style="stroke:#000000; stroke-linecap:butt; stroke-linejoin:round; stroke-width:2; stroke-opacity:0.1; fill:none" points="
  729.53,1423.18 729.53,47.2441 
  "></polyline>
<polyline clip-path="url(#clip532)" style="stroke:#000000; stroke-linecap:butt; stroke-linejoin:round; stroke-width:2; stroke-opacity:0.1; fill:none" points="
  1176.08,1423.18 1176.08,47.2441 
  "></polyline>
<polyline clip-path="url(#clip532)" style="stroke:#000000; stroke-linecap:butt; stroke-linejoin:round; stroke-width:2; stroke-opacity:0.1; fill:none" points="
  1622.64,1423.18 1622.64,47.2441 
  "></polyline>
<polyline clip-path="url(#clip532)" style="stroke:#000000; stroke-linecap:butt; stroke-linejoin:round; stroke-width:2; stroke-opacity:0.1; fill:none" points="
  2069.19,1423.18 2069.19,47.2441 
  "></polyline>
<polyline clip-path="url(#clip530)" style="stroke:#000000; stroke-linecap:butt; stroke-linejoin:round; stroke-width:4; stroke-opacity:1; fill:none" points="
  222.69,1423.18 2352.76,1423.18 
  "></polyline>
<polyline clip-path="url(#clip530)" style="stroke:#000000; stroke-linecap:butt; stroke-linejoin:round; stroke-width:4; stroke-opacity:1; fill:none" points="
  282.975,1423.18 282.975,1404.28 
  "></polyline>
<polyline clip-path="url(#clip530)" style="stroke:#000000; stroke-linecap:butt; stroke-linejoin:round; stroke-width:4; stroke-opacity:1; fill:none" points="
  729.53,1423.18 729.53,1404.28 
  "></polyline>
<polyline clip-path="url(#clip530)" style="stroke:#000000; stroke-linecap:butt; stroke-linejoin:round; stroke-width:4; stroke-opacity:1; fill:none" points="
  1176.08,1423.18 1176.08,1404.28 
  "></polyline>
<polyline clip-path="url(#clip530)" style="stroke:#000000; stroke-linecap:butt; stroke-linejoin:round; stroke-width:4; stroke-opacity:1; fill:none" points="
  1622.64,1423.18 1622.64,1404.28 
  "></polyline>
<polyline clip-path="url(#clip530)" style="stroke:#000000; stroke-linecap:butt; stroke-linejoin:round; stroke-width:4; stroke-opacity:1; fill:none" points="
  2069.19,1423.18 2069.19,1404.28 
  "></polyline>
<path clip-path="url(#clip530)" d="M245.279 1454.1 Q241.668 1454.1 239.839 1457.66 Q238.033 1461.2 238.033 1468.33 Q238.033 1475.44 239.839 1479.01 Q241.668 1482.55 245.279 1482.55 Q248.913 1482.55 250.718 1479.01 Q252.547 1475.44 252.547 1468.33 Q252.547 1461.2 250.718 1457.66 Q248.913 1454.1 245.279 1454.1 M245.279 1450.39 Q251.089 1450.39 254.144 1455 Q257.223 1459.58 257.223 1468.33 Q257.223 1477.06 254.144 1481.67 Q251.089 1486.25 245.279 1486.25 Q239.468 1486.25 236.39 1481.67 Q233.334 1477.06 233.334 1468.33 Q233.334 1459.58 236.39 1455 Q239.468 1450.39 245.279 1450.39 Z" fill="#000000" fill-rule="evenodd" fill-opacity="1"></path><path clip-path="url(#clip530)" d="M265.441 1479.7 L270.325 1479.7 L270.325 1485.58 L265.441 1485.58 L265.441 1479.7 Z" fill="#000000" fill-rule="evenodd" fill-opacity="1"></path><path clip-path="url(#clip530)" d="M290.51 1454.1 Q286.899 1454.1 285.07 1457.66 Q283.265 1461.2 283.265 1468.33 Q283.265 1475.44 285.07 1479.01 Q286.899 1482.55 290.51 1482.55 Q294.144 1482.55 295.95 1479.01 Q297.778 1475.44 297.778 1468.33 Q297.778 1461.2 295.95 1457.66 Q294.144 1454.1 290.51 1454.1 M290.51 1450.39 Q296.32 1450.39 299.376 1455 Q302.454 1459.58 302.454 1468.33 Q302.454 1477.06 299.376 1481.67 Q296.32 1486.25 290.51 1486.25 Q284.7 1486.25 281.621 1481.67 Q278.566 1477.06 278.566 1468.33 Q278.566 1459.58 281.621 1455 Q284.7 1450.39 290.51 1450.39 Z" fill="#000000" fill-rule="evenodd" fill-opacity="1"></path><path clip-path="url(#clip530)" d="M320.672 1454.1 Q317.061 1454.1 315.232 1457.66 Q313.426 1461.2 313.426 1468.33 Q313.426 1475.44 315.232 1479.01 Q317.061 1482.55 320.672 1482.55 Q324.306 1482.55 326.112 1479.01 Q327.94 1475.44 327.94 1468.33 Q327.94 1461.2 326.112 1457.66 Q324.306 1454.1 320.672 1454.1 M320.672 1450.39 Q326.482 1450.39 329.537 1455 Q332.616 1459.58 332.616 1468.33 Q332.616 1477.06 329.537 1481.67 Q326.482 1486.25 320.672 1486.25 Q314.862 1486.25 311.783 1481.67 Q308.727 1477.06 308.727 1468.33 Q308.727 1459.58 311.783 1455 Q314.862 1450.39 320.672 1450.39 Z" fill="#000000" fill-rule="evenodd" fill-opacity="1"></path><path clip-path="url(#clip530)" d="M692.447 1454.1 Q688.836 1454.1 687.007 1457.66 Q685.201 1461.2 685.201 1468.33 Q685.201 1475.44 687.007 1479.01 Q688.836 1482.55 692.447 1482.55 Q696.081 1482.55 697.886 1479.01 Q699.715 1475.44 699.715 1468.33 Q699.715 1461.2 697.886 1457.66 Q696.081 1454.1 692.447 1454.1 M692.447 1450.39 Q698.257 1450.39 701.312 1455 Q704.391 1459.58 704.391 1468.33 Q704.391 1477.06 701.312 1481.67 Q698.257 1486.25 692.447 1486.25 Q686.637 1486.25 683.558 1481.67 Q680.502 1477.06 680.502 1468.33 Q680.502 1459.58 683.558 1455 Q686.637 1450.39 692.447 1450.39 Z" fill="#000000" fill-rule="evenodd" fill-opacity="1"></path><path clip-path="url(#clip530)" d="M712.609 1479.7 L717.493 1479.7 L717.493 1485.58 L712.609 1485.58 L712.609 1479.7 Z" fill="#000000" fill-rule="evenodd" fill-opacity="1"></path><path clip-path="url(#clip530)" d="M737.678 1454.1 Q734.067 1454.1 732.238 1457.66 Q730.433 1461.2 730.433 1468.33 Q730.433 1475.44 732.238 1479.01 Q734.067 1482.55 737.678 1482.55 Q741.312 1482.55 743.118 1479.01 Q744.946 1475.44 744.946 1468.33 Q744.946 1461.2 743.118 1457.66 Q741.312 1454.1 737.678 1454.1 M737.678 1450.39 Q743.488 1450.39 746.544 1455 Q749.622 1459.58 749.622 1468.33 Q749.622 1477.06 746.544 1481.67 Q743.488 1486.25 737.678 1486.25 Q731.868 1486.25 728.789 1481.67 Q725.734 1477.06 725.734 1468.33 Q725.734 1459.58 728.789 1455 Q731.868 1450.39 737.678 1450.39 Z" fill="#000000" fill-rule="evenodd" fill-opacity="1"></path><path clip-path="url(#clip530)" d="M758.65 1481.64 L766.289 1481.64 L766.289 1455.28 L757.979 1456.95 L757.979 1452.69 L766.243 1451.02 L770.918 1451.02 L770.918 1481.64 L778.557 1481.64 L778.557 1485.58 L758.65 1485.58 L758.65 1481.64 Z" fill="#000000" fill-rule="evenodd" fill-opacity="1"></path><path clip-path="url(#clip530)" d="M1139.19 1454.1 Q1135.58 1454.1 1133.75 1457.66 Q1131.94 1461.2 1131.94 1468.33 Q1131.94 1475.44 1133.75 1479.01 Q1135.58 1482.55 1139.19 1482.55 Q1142.82 1482.55 1144.63 1479.01 Q1146.45 1475.44 1146.45 1468.33 Q1146.45 1461.2 1144.63 1457.66 Q1142.82 1454.1 1139.19 1454.1 M1139.19 1450.39 Q1145 1450.39 1148.05 1455 Q1151.13 1459.58 1151.13 1468.33 Q1151.13 1477.06 1148.05 1481.67 Q1145 1486.25 1139.19 1486.25 Q1133.38 1486.25 1130.3 1481.67 Q1127.24 1477.06 1127.24 1468.33 Q1127.24 1459.58 1130.3 1455 Q1133.38 1450.39 1139.19 1450.39 Z" fill="#000000" fill-rule="evenodd" fill-opacity="1"></path><path clip-path="url(#clip530)" d="M1159.35 1479.7 L1164.23 1479.7 L1164.23 1485.58 L1159.35 1485.58 L1159.35 1479.7 Z" fill="#000000" fill-rule="evenodd" fill-opacity="1"></path><path clip-path="url(#clip530)" d="M1184.42 1454.1 Q1180.81 1454.1 1178.98 1457.66 Q1177.17 1461.2 1177.17 1468.33 Q1177.17 1475.44 1178.98 1479.01 Q1180.81 1482.55 1184.42 1482.55 Q1188.05 1482.55 1189.86 1479.01 Q1191.69 1475.44 1191.69 1468.33 Q1191.69 1461.2 1189.86 1457.66 Q1188.05 1454.1 1184.42 1454.1 M1184.42 1450.39 Q1190.23 1450.39 1193.28 1455 Q1196.36 1459.58 1196.36 1468.33 Q1196.36 1477.06 1193.28 1481.67 Q1190.23 1486.25 1184.42 1486.25 Q1178.61 1486.25 1175.53 1481.67 Q1172.47 1477.06 1172.47 1468.33 Q1172.47 1459.58 1175.53 1455 Q1178.61 1450.39 1184.42 1450.39 Z" fill="#000000" fill-rule="evenodd" fill-opacity="1"></path><path clip-path="url(#clip530)" d="M1208.61 1481.64 L1224.93 1481.64 L1224.93 1485.58 L1202.98 1485.58 L1202.98 1481.64 Q1205.64 1478.89 1210.23 1474.26 Q1214.83 1469.61 1216.01 1468.27 Q1218.26 1465.74 1219.14 1464.01 Q1220.04 1462.25 1220.04 1460.56 Q1220.04 1457.8 1218.1 1456.07 Q1216.18 1454.33 1213.08 1454.33 Q1210.88 1454.33 1208.42 1455.09 Q1205.99 1455.86 1203.21 1457.41 L1203.21 1452.69 Q1206.04 1451.55 1208.49 1450.97 Q1210.95 1450.39 1212.98 1450.39 Q1218.35 1450.39 1221.55 1453.08 Q1224.74 1455.77 1224.74 1460.26 Q1224.74 1462.39 1223.93 1464.31 Q1223.14 1466.2 1221.04 1468.8 Q1220.46 1469.47 1217.36 1472.69 Q1214.26 1475.88 1208.61 1481.64 Z" fill="#000000" fill-rule="evenodd" fill-opacity="1"></path><path clip-path="url(#clip530)" d="M1585.27 1454.1 Q1581.66 1454.1 1579.83 1457.66 Q1578.02 1461.2 1578.02 1468.33 Q1578.02 1475.44 1579.83 1479.01 Q1581.66 1482.55 1585.27 1482.55 Q1588.9 1482.55 1590.71 1479.01 Q1592.54 1475.44 1592.54 1468.33 Q1592.54 1461.2 1590.71 1457.66 Q1588.9 1454.1 1585.27 1454.1 M1585.27 1450.39 Q1591.08 1450.39 1594.13 1455 Q1597.21 1459.58 1597.21 1468.33 Q1597.21 1477.06 1594.13 1481.67 Q1591.08 1486.25 1585.27 1486.25 Q1579.46 1486.25 1576.38 1481.67 Q1573.32 1477.06 1573.32 1468.33 Q1573.32 1459.58 1576.38 1455 Q1579.46 1450.39 1585.27 1450.39 Z" fill="#000000" fill-rule="evenodd" fill-opacity="1"></path><path clip-path="url(#clip530)" d="M1605.43 1479.7 L1610.31 1479.7 L1610.31 1485.58 L1605.43 1485.58 L1605.43 1479.7 Z" fill="#000000" fill-rule="evenodd" fill-opacity="1"></path><path clip-path="url(#clip530)" d="M1630.5 1454.1 Q1626.89 1454.1 1625.06 1457.66 Q1623.25 1461.2 1623.25 1468.33 Q1623.25 1475.44 1625.06 1479.01 Q1626.89 1482.55 1630.5 1482.55 Q1634.13 1482.55 1635.94 1479.01 Q1637.77 1475.44 1637.77 1468.33 Q1637.77 1461.2 1635.94 1457.66 Q1634.13 1454.1 1630.5 1454.1 M1630.5 1450.39 Q1636.31 1450.39 1639.36 1455 Q1642.44 1459.58 1642.44 1468.33 Q1642.44 1477.06 1639.36 1481.67 Q1636.31 1486.25 1630.5 1486.25 Q1624.69 1486.25 1621.61 1481.67 Q1618.55 1477.06 1618.55 1468.33 Q1618.55 1459.58 1621.61 1455 Q1624.69 1450.39 1630.5 1450.39 Z" fill="#000000" fill-rule="evenodd" fill-opacity="1"></path><path clip-path="url(#clip530)" d="M1664.83 1466.95 Q1668.18 1467.66 1670.06 1469.93 Q1671.96 1472.2 1671.96 1475.53 Q1671.96 1480.65 1668.44 1483.45 Q1664.92 1486.25 1658.44 1486.25 Q1656.26 1486.25 1653.95 1485.81 Q1651.66 1485.39 1649.2 1484.54 L1649.2 1480.02 Q1651.15 1481.16 1653.46 1481.74 Q1655.78 1482.32 1658.3 1482.32 Q1662.7 1482.32 1664.99 1480.58 Q1667.3 1478.84 1667.3 1475.53 Q1667.3 1472.48 1665.15 1470.77 Q1663.02 1469.03 1659.2 1469.03 L1655.17 1469.03 L1655.17 1465.19 L1659.39 1465.19 Q1662.84 1465.19 1664.66 1463.82 Q1666.49 1462.43 1666.49 1459.84 Q1666.49 1457.18 1664.59 1455.77 Q1662.72 1454.33 1659.2 1454.33 Q1657.28 1454.33 1655.08 1454.75 Q1652.88 1455.16 1650.24 1456.04 L1650.24 1451.88 Q1652.91 1451.14 1655.22 1450.77 Q1657.56 1450.39 1659.62 1450.39 Q1664.94 1450.39 1668.04 1452.83 Q1671.15 1455.23 1671.15 1459.35 Q1671.15 1462.22 1669.5 1464.21 Q1667.86 1466.18 1664.83 1466.95 Z" fill="#000000" fill-rule="evenodd" fill-opacity="1"></path><path clip-path="url(#clip530)" d="M2031.25 1454.1 Q2027.64 1454.1 2025.81 1457.66 Q2024.01 1461.2 2024.01 1468.33 Q2024.01 1475.44 2025.81 1479.01 Q2027.64 1482.55 2031.25 1482.55 Q2034.89 1482.55 2036.69 1479.01 Q2038.52 1475.44 2038.52 1468.33 Q2038.52 1461.2 2036.69 1457.66 Q2034.89 1454.1 2031.25 1454.1 M2031.25 1450.39 Q2037.06 1450.39 2040.12 1455 Q2043.2 1459.58 2043.2 1468.33 Q2043.2 1477.06 2040.12 1481.67 Q2037.06 1486.25 2031.25 1486.25 Q2025.44 1486.25 2022.37 1481.67 Q2019.31 1477.06 2019.31 1468.33 Q2019.31 1459.58 2022.37 1455 Q2025.44 1450.39 2031.25 1450.39 Z" fill="#000000" fill-rule="evenodd" fill-opacity="1"></path><path clip-path="url(#clip530)" d="M2051.42 1479.7 L2056.3 1479.7 L2056.3 1485.58 L2051.42 1485.58 L2051.42 1479.7 Z" fill="#000000" fill-rule="evenodd" fill-opacity="1"></path><path clip-path="url(#clip530)" d="M2076.49 1454.1 Q2072.87 1454.1 2071.05 1457.66 Q2069.24 1461.2 2069.24 1468.33 Q2069.24 1475.44 2071.05 1479.01 Q2072.87 1482.55 2076.49 1482.55 Q2080.12 1482.55 2081.93 1479.01 Q2083.75 1475.44 2083.75 1468.33 Q2083.75 1461.2 2081.93 1457.66 Q2080.12 1454.1 2076.49 1454.1 M2076.49 1450.39 Q2082.3 1450.39 2085.35 1455 Q2088.43 1459.58 2088.43 1468.33 Q2088.43 1477.06 2085.35 1481.67 Q2082.3 1486.25 2076.49 1486.25 Q2070.68 1486.25 2067.6 1481.67 Q2064.54 1477.06 2064.54 1468.33 Q2064.54 1459.58 2067.6 1455 Q2070.68 1450.39 2076.49 1450.39 Z" fill="#000000" fill-rule="evenodd" fill-opacity="1"></path><path clip-path="url(#clip530)" d="M2109.49 1455.09 L2097.69 1473.54 L2109.49 1473.54 L2109.49 1455.09 M2108.27 1451.02 L2114.15 1451.02 L2114.15 1473.54 L2119.08 1473.54 L2119.08 1477.43 L2114.15 1477.43 L2114.15 1485.58 L2109.49 1485.58 L2109.49 1477.43 L2093.89 1477.43 L2093.89 1472.92 L2108.27 1451.02 Z" fill="#000000" fill-rule="evenodd" fill-opacity="1"></path><path clip-path="url(#clip530)" d="M1033.99 1520.52 L1043.57 1520.52 L1055.69 1552.86 L1067.88 1520.52 L1077.46 1520.52 L1077.46 1568.04 L1071.19 1568.04 L1071.19 1526.32 L1058.94 1558.91 L1052.48 1558.91 L1040.22 1526.32 L1040.22 1568.04 L1033.99 1568.04 L1033.99 1520.52 Z" fill="#000000" fill-rule="evenodd" fill-opacity="1"></path><path clip-path="url(#clip530)" d="M1089.97 1532.4 L1095.83 1532.4 L1095.83 1568.04 L1089.97 1568.04 L1089.97 1532.4 M1089.97 1518.52 L1095.83 1518.52 L1095.83 1525.93 L1089.97 1525.93 L1089.97 1518.52 Z" fill="#000000" fill-rule="evenodd" fill-opacity="1"></path><path clip-path="url(#clip530)" d="M1130.81 1533.45 L1130.81 1538.98 Q1128.33 1537.71 1125.65 1537.07 Q1122.98 1536.44 1120.11 1536.44 Q1115.75 1536.44 1113.56 1537.77 Q1111.39 1539.11 1111.39 1541.79 Q1111.39 1543.82 1112.95 1545 Q1114.51 1546.15 1119.22 1547.2 L1121.23 1547.64 Q1127.47 1548.98 1130.08 1551.43 Q1132.72 1553.85 1132.72 1558.21 Q1132.72 1563.17 1128.77 1566.07 Q1124.86 1568.97 1117.98 1568.97 Q1115.12 1568.97 1112 1568.39 Q1108.91 1567.85 1105.47 1566.74 L1105.47 1560.69 Q1108.72 1562.38 1111.87 1563.24 Q1115.02 1564.07 1118.11 1564.07 Q1122.25 1564.07 1124.47 1562.66 Q1126.7 1561.23 1126.7 1558.65 Q1126.7 1556.27 1125.08 1554.99 Q1123.49 1553.72 1118.05 1552.54 L1116.01 1552.07 Q1110.57 1550.92 1108.15 1548.56 Q1105.73 1546.18 1105.73 1542.04 Q1105.73 1537.01 1109.29 1534.27 Q1112.86 1531.54 1119.41 1531.54 Q1122.66 1531.54 1125.52 1532.01 Q1128.39 1532.49 1130.81 1533.45 Z" fill="#000000" fill-rule="evenodd" fill-opacity="1"></path><path clip-path="url(#clip530)" d="M1164.77 1533.45 L1164.77 1538.98 Q1162.29 1537.71 1159.61 1537.07 Q1156.94 1536.44 1154.08 1536.44 Q1149.71 1536.44 1147.52 1537.77 Q1145.35 1539.11 1145.35 1541.79 Q1145.35 1543.82 1146.91 1545 Q1148.47 1546.15 1153.18 1547.2 L1155.19 1547.64 Q1161.43 1548.98 1164.04 1551.43 Q1166.68 1553.85 1166.68 1558.21 Q1166.68 1563.17 1162.73 1566.07 Q1158.82 1568.97 1151.94 1568.97 Q1149.08 1568.97 1145.96 1568.39 Q1142.87 1567.85 1139.43 1566.74 L1139.43 1560.69 Q1142.68 1562.38 1145.83 1563.24 Q1148.98 1564.07 1152.07 1564.07 Q1156.21 1564.07 1158.44 1562.66 Q1160.66 1561.23 1160.66 1558.65 Q1160.66 1556.27 1159.04 1554.99 Q1157.45 1553.72 1152.01 1552.54 L1149.97 1552.07 Q1144.53 1550.92 1142.11 1548.56 Q1139.69 1546.18 1139.69 1542.04 Q1139.69 1537.01 1143.25 1534.27 Q1146.82 1531.54 1153.37 1531.54 Q1156.62 1531.54 1159.49 1532.01 Q1162.35 1532.49 1164.77 1533.45 Z" fill="#000000" fill-rule="evenodd" fill-opacity="1"></path><path clip-path="url(#clip530)" d="M1181.67 1562.7 L1181.67 1581.6 L1175.78 1581.6 L1175.78 1532.4 L1181.67 1532.4 L1181.67 1537.81 Q1183.52 1534.62 1186.32 1533.1 Q1189.15 1531.54 1193.07 1531.54 Q1199.56 1531.54 1203.6 1536.69 Q1207.67 1541.85 1207.67 1550.25 Q1207.67 1558.65 1203.6 1563.81 Q1199.56 1568.97 1193.07 1568.97 Q1189.15 1568.97 1186.32 1567.44 Q1183.52 1565.88 1181.67 1562.7 M1201.6 1550.25 Q1201.6 1543.79 1198.92 1540.13 Q1196.28 1536.44 1191.63 1536.44 Q1186.99 1536.44 1184.31 1540.13 Q1181.67 1543.79 1181.67 1550.25 Q1181.67 1556.71 1184.31 1560.4 Q1186.99 1564.07 1191.63 1564.07 Q1196.28 1564.07 1198.92 1560.4 Q1201.6 1556.71 1201.6 1550.25 Z" fill="#000000" fill-rule="evenodd" fill-opacity="1"></path><path clip-path="url(#clip530)" d="M1247.87 1548.76 L1247.87 1551.62 L1220.95 1551.62 Q1221.33 1557.67 1224.58 1560.85 Q1227.85 1564 1233.68 1564 Q1237.05 1564 1240.2 1563.17 Q1243.39 1562.35 1246.51 1560.69 L1246.51 1566.23 Q1243.35 1567.57 1240.04 1568.27 Q1236.73 1568.97 1233.33 1568.97 Q1224.8 1568.97 1219.8 1564 Q1214.84 1559.04 1214.84 1550.57 Q1214.84 1541.82 1219.55 1536.69 Q1224.29 1531.54 1232.31 1531.54 Q1239.5 1531.54 1243.67 1536.18 Q1247.87 1540.8 1247.87 1548.76 M1242.02 1547.04 Q1241.95 1542.23 1239.31 1539.37 Q1236.7 1536.5 1232.37 1536.5 Q1227.47 1536.5 1224.51 1539.27 Q1221.58 1542.04 1221.14 1547.07 L1242.02 1547.04 Z" fill="#000000" fill-rule="evenodd" fill-opacity="1"></path><path clip-path="url(#clip530)" d="M1283.14 1533.76 L1283.14 1539.24 Q1280.66 1537.87 1278.14 1537.2 Q1275.66 1536.5 1273.11 1536.5 Q1267.42 1536.5 1264.27 1540.13 Q1261.11 1543.73 1261.11 1550.25 Q1261.11 1556.78 1264.27 1560.4 Q1267.42 1564 1273.11 1564 Q1275.66 1564 1278.14 1563.33 Q1280.66 1562.63 1283.14 1561.26 L1283.14 1566.68 Q1280.69 1567.82 1278.05 1568.39 Q1275.44 1568.97 1272.48 1568.97 Q1264.42 1568.97 1259.68 1563.91 Q1254.94 1558.85 1254.94 1550.25 Q1254.94 1541.53 1259.71 1536.53 Q1264.52 1531.54 1272.86 1531.54 Q1275.56 1531.54 1278.14 1532.11 Q1280.72 1532.65 1283.14 1533.76 Z" fill="#000000" fill-rule="evenodd" fill-opacity="1"></path><path clip-path="url(#clip530)" d="M1293.32 1532.4 L1299.18 1532.4 L1299.18 1568.04 L1293.32 1568.04 L1293.32 1532.4 M1293.32 1518.52 L1299.18 1518.52 L1299.18 1525.93 L1293.32 1525.93 L1293.32 1518.52 Z" fill="#000000" fill-rule="evenodd" fill-opacity="1"></path><path clip-path="url(#clip530)" d="M1329.48 1518.52 L1329.48 1523.39 L1323.88 1523.39 Q1320.73 1523.39 1319.49 1524.66 Q1318.28 1525.93 1318.28 1529.24 L1318.28 1532.4 L1327.92 1532.4 L1327.92 1536.95 L1318.28 1536.95 L1318.28 1568.04 L1312.39 1568.04 L1312.39 1536.95 L1306.79 1536.95 L1306.79 1532.4 L1312.39 1532.4 L1312.39 1529.91 Q1312.39 1523.96 1315.16 1521.26 Q1317.93 1518.52 1323.94 1518.52 L1329.48 1518.52 Z" fill="#000000" fill-rule="evenodd" fill-opacity="1"></path><path clip-path="url(#clip530)" d="M1334.38 1532.4 L1340.24 1532.4 L1340.24 1568.04 L1334.38 1568.04 L1334.38 1532.4 M1334.38 1518.52 L1340.24 1518.52 L1340.24 1525.93 L1334.38 1525.93 L1334.38 1518.52 Z" fill="#000000" fill-rule="evenodd" fill-opacity="1"></path><path clip-path="url(#clip530)" d="M1378.15 1533.76 L1378.15 1539.24 Q1375.67 1537.87 1373.15 1537.2 Q1370.67 1536.5 1368.12 1536.5 Q1362.42 1536.5 1359.27 1540.13 Q1356.12 1543.73 1356.12 1550.25 Q1356.12 1556.78 1359.27 1560.4 Q1362.42 1564 1368.12 1564 Q1370.67 1564 1373.15 1563.33 Q1375.67 1562.63 1378.15 1561.26 L1378.15 1566.68 Q1375.7 1567.82 1373.06 1568.39 Q1370.45 1568.97 1367.49 1568.97 Q1359.43 1568.97 1354.69 1563.91 Q1349.95 1558.85 1349.95 1550.25 Q1349.95 1541.53 1354.72 1536.53 Q1359.53 1531.54 1367.87 1531.54 Q1370.57 1531.54 1373.15 1532.11 Q1375.73 1532.65 1378.15 1533.76 Z" fill="#000000" fill-rule="evenodd" fill-opacity="1"></path><path clip-path="url(#clip530)" d="M1404.53 1550.12 Q1397.44 1550.12 1394.7 1551.75 Q1391.96 1553.37 1391.96 1557.29 Q1391.96 1560.4 1394 1562.25 Q1396.07 1564.07 1399.6 1564.07 Q1404.47 1564.07 1407.4 1560.63 Q1410.36 1557.16 1410.36 1551.43 L1410.36 1550.12 L1404.53 1550.12 M1416.21 1547.71 L1416.21 1568.04 L1410.36 1568.04 L1410.36 1562.63 Q1408.35 1565.88 1405.36 1567.44 Q1402.37 1568.97 1398.04 1568.97 Q1392.57 1568.97 1389.32 1565.91 Q1386.11 1562.82 1386.11 1557.67 Q1386.11 1551.65 1390.12 1548.6 Q1394.16 1545.54 1402.15 1545.54 L1410.36 1545.54 L1410.36 1544.97 Q1410.36 1540.93 1407.68 1538.73 Q1405.04 1536.5 1400.24 1536.5 Q1397.18 1536.5 1394.29 1537.23 Q1391.39 1537.97 1388.72 1539.43 L1388.72 1534.02 Q1391.93 1532.78 1394.95 1532.17 Q1397.98 1531.54 1400.84 1531.54 Q1408.58 1531.54 1412.4 1535.55 Q1416.21 1539.56 1416.21 1547.71 Z" fill="#000000" fill-rule="evenodd" fill-opacity="1"></path><path clip-path="url(#clip530)" d="M1434.07 1522.27 L1434.07 1532.4 L1446.13 1532.4 L1446.13 1536.95 L1434.07 1536.95 L1434.07 1556.3 Q1434.07 1560.66 1435.25 1561.9 Q1436.46 1563.14 1440.12 1563.14 L1446.13 1563.14 L1446.13 1568.04 L1440.12 1568.04 Q1433.34 1568.04 1430.76 1565.53 Q1428.18 1562.98 1428.18 1556.3 L1428.18 1536.95 L1423.89 1536.95 L1423.89 1532.4 L1428.18 1532.4 L1428.18 1522.27 L1434.07 1522.27 Z" fill="#000000" fill-rule="evenodd" fill-opacity="1"></path><path clip-path="url(#clip530)" d="M1453.84 1532.4 L1459.69 1532.4 L1459.69 1568.04 L1453.84 1568.04 L1453.84 1532.4 M1453.84 1518.52 L1459.69 1518.52 L1459.69 1525.93 L1453.84 1525.93 L1453.84 1518.52 Z" fill="#000000" fill-rule="evenodd" fill-opacity="1"></path><path clip-path="url(#clip530)" d="M1485.76 1536.5 Q1481.05 1536.5 1478.31 1540.19 Q1475.58 1543.85 1475.58 1550.25 Q1475.58 1556.65 1478.28 1560.34 Q1481.02 1564 1485.76 1564 Q1490.44 1564 1493.18 1560.31 Q1495.91 1556.62 1495.91 1550.25 Q1495.91 1543.92 1493.18 1540.23 Q1490.44 1536.5 1485.76 1536.5 M1485.76 1531.54 Q1493.4 1531.54 1497.76 1536.5 Q1502.12 1541.47 1502.12 1550.25 Q1502.12 1559 1497.76 1564 Q1493.4 1568.97 1485.76 1568.97 Q1478.09 1568.97 1473.73 1564 Q1469.4 1559 1469.4 1550.25 Q1469.4 1541.47 1473.73 1536.5 Q1478.09 1531.54 1485.76 1531.54 Z" fill="#000000" fill-rule="evenodd" fill-opacity="1"></path><path clip-path="url(#clip530)" d="M1541.46 1546.53 L1541.46 1568.04 L1535.6 1568.04 L1535.6 1546.72 Q1535.6 1541.66 1533.63 1539.14 Q1531.66 1536.63 1527.71 1536.63 Q1522.97 1536.63 1520.23 1539.65 Q1517.49 1542.68 1517.49 1547.9 L1517.49 1568.04 L1511.61 1568.04 L1511.61 1532.4 L1517.49 1532.4 L1517.49 1537.93 Q1519.59 1534.72 1522.43 1533.13 Q1525.29 1531.54 1529.02 1531.54 Q1535.16 1531.54 1538.31 1535.36 Q1541.46 1539.14 1541.46 1546.53 Z" fill="#000000" fill-rule="evenodd" fill-opacity="1"></path><polyline clip-path="url(#clip532)" style="stroke:#000000; stroke-linecap:butt; stroke-linejoin:round; stroke-width:2; stroke-opacity:0.1; fill:none" points="
  222.69,1369.94 2352.76,1369.94 
  "></polyline>
<polyline clip-path="url(#clip532)" style="stroke:#000000; stroke-linecap:butt; stroke-linejoin:round; stroke-width:2; stroke-opacity:0.1; fill:none" points="
  222.69,728.063 2352.76,728.063 
  "></polyline>
<polyline clip-path="url(#clip532)" style="stroke:#000000; stroke-linecap:butt; stroke-linejoin:round; stroke-width:2; stroke-opacity:0.1; fill:none" points="
  222.69,86.1857 2352.76,86.1857 
  "></polyline>
<polyline clip-path="url(#clip530)" style="stroke:#000000; stroke-linecap:butt; stroke-linejoin:round; stroke-width:4; stroke-opacity:1; fill:none" points="
  222.69,1423.18 222.69,47.2441 
  "></polyline>
<polyline clip-path="url(#clip530)" style="stroke:#000000; stroke-linecap:butt; stroke-linejoin:round; stroke-width:4; stroke-opacity:1; fill:none" points="
  222.69,1369.94 241.588,1369.94 
  "></polyline>
<polyline clip-path="url(#clip530)" style="stroke:#000000; stroke-linecap:butt; stroke-linejoin:round; stroke-width:4; stroke-opacity:1; fill:none" points="
  222.69,728.063 241.588,728.063 
  "></polyline>
<polyline clip-path="url(#clip530)" style="stroke:#000000; stroke-linecap:butt; stroke-linejoin:round; stroke-width:4; stroke-opacity:1; fill:none" points="
  222.69,86.1857 241.588,86.1857 
  "></polyline>
<path clip-path="url(#clip530)" d="M117.565 1389.73 L125.203 1389.73 L125.203 1363.37 L116.893 1365.03 L116.893 1360.77 L125.157 1359.11 L129.833 1359.11 L129.833 1389.73 L137.472 1389.73 L137.472 1393.67 L117.565 1393.67 L117.565 1389.73 Z" fill="#000000" fill-rule="evenodd" fill-opacity="1"></path><path clip-path="url(#clip530)" d="M156.916 1362.19 Q153.305 1362.19 151.476 1365.75 Q149.671 1369.29 149.671 1376.42 Q149.671 1383.53 151.476 1387.09 Q153.305 1390.63 156.916 1390.63 Q160.55 1390.63 162.356 1387.09 Q164.185 1383.53 164.185 1376.42 Q164.185 1369.29 162.356 1365.75 Q160.55 1362.19 156.916 1362.19 M156.916 1358.48 Q162.726 1358.48 165.782 1363.09 Q168.861 1367.67 168.861 1376.42 Q168.861 1385.15 165.782 1389.76 Q162.726 1394.34 156.916 1394.34 Q151.106 1394.34 148.027 1389.76 Q144.972 1385.15 144.972 1376.42 Q144.972 1367.67 148.027 1363.09 Q151.106 1358.48 156.916 1358.48 Z" fill="#000000" fill-rule="evenodd" fill-opacity="1"></path><path clip-path="url(#clip530)" d="M173.431 1363.06 L186.69 1363.06 L186.69 1366.26 L168.861 1366.26 L168.861 1363.06 Q171.023 1360.82 174.747 1357.06 Q178.49 1353.28 179.449 1352.19 Q181.274 1350.14 181.988 1348.73 Q182.722 1347.3 182.722 1345.93 Q182.722 1343.69 181.142 1342.28 Q179.581 1340.87 177.061 1340.87 Q175.274 1340.87 173.28 1341.49 Q171.306 1342.11 169.049 1343.37 L169.049 1339.53 Q171.343 1338.61 173.337 1338.14 Q175.33 1337.67 176.986 1337.67 Q181.349 1337.67 183.944 1339.85 Q186.54 1342.03 186.54 1345.68 Q186.54 1347.41 185.882 1348.97 Q185.242 1350.51 183.531 1352.62 Q183.06 1353.17 180.54 1355.78 Q178.02 1358.38 173.431 1363.06 Z" fill="#000000" fill-rule="evenodd" fill-opacity="1"></path><path clip-path="url(#clip530)" d="M116.906 747.855 L124.545 747.855 L124.545 721.489 L116.235 723.156 L116.235 718.897 L124.499 717.23 L129.175 717.23 L129.175 747.855 L136.814 747.855 L136.814 751.79 L116.906 751.79 L116.906 747.855 Z" fill="#000000" fill-rule="evenodd" fill-opacity="1"></path><path clip-path="url(#clip530)" d="M156.258 720.309 Q152.647 720.309 150.818 723.874 Q149.013 727.415 149.013 734.545 Q149.013 741.651 150.818 745.216 Q152.647 748.758 156.258 748.758 Q159.892 748.758 161.698 745.216 Q163.526 741.651 163.526 734.545 Q163.526 727.415 161.698 723.874 Q159.892 720.309 156.258 720.309 M156.258 716.605 Q162.068 716.605 165.124 721.212 Q168.202 725.795 168.202 734.545 Q168.202 743.272 165.124 747.878 Q162.068 752.462 156.258 752.462 Q150.448 752.462 147.369 747.878 Q144.314 743.272 144.314 734.545 Q144.314 725.795 147.369 721.212 Q150.448 716.605 156.258 716.605 Z" fill="#000000" fill-rule="evenodd" fill-opacity="1"></path><path clip-path="url(#clip530)" d="M180.898 709.24 Q183.625 709.823 185.148 711.666 Q186.69 713.509 186.69 716.217 Q186.69 720.374 183.832 722.65 Q180.973 724.925 175.707 724.925 Q173.939 724.925 172.058 724.568 Q170.196 724.229 168.202 723.533 L168.202 719.866 Q169.782 720.788 171.663 721.258 Q173.544 721.728 175.594 721.728 Q179.167 721.728 181.029 720.317 Q182.91 718.907 182.91 716.217 Q182.91 713.735 181.161 712.343 Q179.431 710.932 176.327 710.932 L173.055 710.932 L173.055 707.81 L176.478 707.81 Q179.28 707.81 180.766 706.701 Q182.252 705.572 182.252 703.466 Q182.252 701.303 180.709 700.155 Q179.186 698.989 176.327 698.989 Q174.766 698.989 172.979 699.328 Q171.193 699.666 169.049 700.381 L169.049 696.996 Q171.212 696.394 173.092 696.093 Q174.992 695.792 176.666 695.792 Q180.992 695.792 183.512 697.767 Q186.032 699.723 186.032 703.071 Q186.032 705.403 184.697 707.02 Q183.361 708.619 180.898 709.24 Z" fill="#000000" fill-rule="evenodd" fill-opacity="1"></path><path clip-path="url(#clip530)" d="M114.931 105.978 L122.57 105.978 L122.57 79.6125 L114.26 81.2792 L114.26 77.0199 L122.524 75.3533 L127.2 75.3533 L127.2 105.978 L134.839 105.978 L134.839 109.913 L114.931 109.913 L114.931 105.978 Z" fill="#000000" fill-rule="evenodd" fill-opacity="1"></path><path clip-path="url(#clip530)" d="M154.283 78.432 Q150.672 78.432 148.843 81.9968 Q147.038 85.5384 147.038 92.668 Q147.038 99.7744 148.843 103.339 Q150.672 106.881 154.283 106.881 Q157.917 106.881 159.723 103.339 Q161.552 99.7744 161.552 92.668 Q161.552 85.5384 159.723 81.9968 Q157.917 78.432 154.283 78.432 M154.283 74.7283 Q160.093 74.7283 163.149 79.3347 Q166.227 83.918 166.227 92.668 Q166.227 101.395 163.149 106.001 Q160.093 110.585 154.283 110.585 Q148.473 110.585 145.394 106.001 Q142.339 101.395 142.339 92.668 Q142.339 83.918 145.394 79.3347 Q148.473 74.7283 154.283 74.7283 Z" fill="#000000" fill-rule="evenodd" fill-opacity="1"></path><path clip-path="url(#clip530)" d="M178.904 57.733 L169.312 72.7228 L178.904 72.7228 L178.904 57.733 M177.907 54.4229 L182.684 54.4229 L182.684 72.7228 L186.69 72.7228 L186.69 75.8825 L182.684 75.8825 L182.684 82.5029 L178.904 82.5029 L178.904 75.8825 L166.227 75.8825 L166.227 72.215 L177.907 54.4229 Z" fill="#000000" fill-rule="evenodd" fill-opacity="1"></path><path clip-path="url(#clip530)" d="M16.4842 1224.24 L16.4842 1215.58 L56.238 1194.51 L16.4842 1194.51 L16.4842 1188.28 L64.0042 1188.28 L64.0042 1196.93 L24.2503 1218 L64.0042 1218 L64.0042 1224.24 L16.4842 1224.24 Z" fill="#000000" fill-rule="evenodd" fill-opacity="1"></path><path clip-path="url(#clip530)" d="M49.9359 1176.34 L28.3562 1176.34 L28.3562 1170.48 L49.7131 1170.48 Q54.7739 1170.48 57.3202 1168.51 Q59.8346 1166.54 59.8346 1162.59 Q59.8346 1157.85 56.8109 1155.11 Q53.7872 1152.34 48.5673 1152.34 L28.3562 1152.34 L28.3562 1146.48 L64.0042 1146.48 L64.0042 1152.34 L58.5296 1152.34 Q61.7762 1154.47 63.3676 1157.31 Q64.9272 1160.11 64.9272 1163.83 Q64.9272 1169.97 61.1078 1173.16 Q57.2883 1176.34 49.9359 1176.34 M27.4968 1161.6 L27.4968 1161.6 Z" fill="#000000" fill-rule="evenodd" fill-opacity="1"></path><path clip-path="url(#clip530)" d="M35.1993 1106.67 Q31.2526 1104.47 29.3747 1101.42 Q27.4968 1098.36 27.4968 1094.22 Q27.4968 1088.65 31.4117 1085.63 Q35.2948 1082.6 42.4881 1082.6 L64.0042 1082.6 L64.0042 1088.49 L42.679 1088.49 Q37.5546 1088.49 35.072 1090.31 Q32.5894 1092.12 32.5894 1095.85 Q32.5894 1100.4 35.6131 1103.04 Q38.6368 1105.68 43.8567 1105.68 L64.0042 1105.68 L64.0042 1111.57 L42.679 1111.57 Q37.5228 1111.57 35.072 1113.38 Q32.5894 1115.2 32.5894 1118.98 Q32.5894 1123.47 35.6449 1126.11 Q38.6686 1128.76 43.8567 1128.76 L64.0042 1128.76 L64.0042 1134.64 L28.3562 1134.64 L28.3562 1128.76 L33.8944 1128.76 Q30.616 1126.75 29.0564 1123.95 Q27.4968 1121.15 27.4968 1117.3 Q27.4968 1113.41 29.4702 1110.71 Q31.4436 1107.97 35.1993 1106.67 Z" fill="#000000" fill-rule="evenodd" fill-opacity="1"></path><path clip-path="url(#clip530)" d="M46.212 1045.33 Q39.7508 1045.33 36.0905 1048.01 Q32.3984 1050.65 32.3984 1055.3 Q32.3984 1059.94 36.0905 1062.62 Q39.7508 1065.26 46.212 1065.26 Q52.6732 1065.26 56.3653 1062.62 Q60.0256 1059.94 60.0256 1055.3 Q60.0256 1050.65 56.3653 1048.01 Q52.6732 1045.33 46.212 1045.33 M33.7671 1065.26 Q30.5842 1063.41 29.0564 1060.61 Q27.4968 1057.78 27.4968 1053.86 Q27.4968 1047.37 32.6531 1043.33 Q37.8093 1039.25 46.212 1039.25 Q54.6147 1039.25 59.771 1043.33 Q64.9272 1047.37 64.9272 1053.86 Q64.9272 1057.78 63.3994 1060.61 Q61.8398 1063.41 58.657 1065.26 L64.0042 1065.26 L64.0042 1071.15 L14.479 1071.15 L14.479 1065.26 L33.7671 1065.26 Z" fill="#000000" fill-rule="evenodd" fill-opacity="1"></path><path clip-path="url(#clip530)" d="M44.7161 999.055 L47.5806 999.055 L47.5806 1025.98 Q53.6281 1025.6 56.8109 1022.35 Q59.9619 1019.07 59.9619 1013.25 Q59.9619 1009.88 59.1344 1006.73 Q58.3069 1003.54 56.6518 1000.42 L62.1899 1000.42 Q63.5267 1003.57 64.227 1006.88 Q64.9272 1010.19 64.9272 1013.6 Q64.9272 1022.13 59.9619 1027.13 Q54.9967 1032.09 46.5303 1032.09 Q37.7774 1032.09 32.6531 1027.38 Q27.4968 1022.64 27.4968 1014.62 Q27.4968 1007.43 32.1438 1003.26 Q36.7589 999.055 44.7161 999.055 M42.9973 1004.91 Q38.1912 1004.97 35.3266 1007.62 Q32.4621 1010.23 32.4621 1014.56 Q32.4621 1019.46 35.2312 1022.42 Q38.0002 1025.34 43.0292 1025.79 L42.9973 1004.91 Z" fill="#000000" fill-rule="evenodd" fill-opacity="1"></path><path clip-path="url(#clip530)" d="M33.8307 968.786 Q33.2578 969.772 33.0032 970.95 Q32.7167 972.096 32.7167 973.496 Q32.7167 978.462 35.9632 981.135 Q39.1779 983.777 45.2253 983.777 L64.0042 983.777 L64.0042 989.665 L28.3562 989.665 L28.3562 983.777 L33.8944 983.777 Q30.6479 981.931 29.0883 978.971 Q27.4968 976.011 27.4968 971.778 Q27.4968 971.173 27.5923 970.441 Q27.656 969.709 27.8151 968.817 L33.8307 968.786 Z" fill="#000000" fill-rule="evenodd" fill-opacity="1"></path><path clip-path="url(#clip530)" d="M32.4621 928.109 Q32.4621 932.819 36.1542 935.557 Q39.8145 938.294 46.212 938.294 Q52.6095 938.294 56.3017 935.588 Q59.9619 932.851 59.9619 928.109 Q59.9619 923.43 56.2698 920.693 Q52.5777 917.955 46.212 917.955 Q39.8781 917.955 36.186 920.693 Q32.4621 923.43 32.4621 928.109 M27.4968 928.109 Q27.4968 920.47 32.4621 916.109 Q37.4273 911.749 46.212 911.749 Q54.9649 911.749 59.9619 916.109 Q64.9272 920.47 64.9272 928.109 Q64.9272 935.779 59.9619 940.14 Q54.9649 944.469 46.212 944.469 Q37.4273 944.469 32.4621 940.14 Q27.4968 935.779 27.4968 928.109 Z" fill="#000000" fill-rule="evenodd" fill-opacity="1"></path><path clip-path="url(#clip530)" d="M14.479 883.994 L19.3487 883.994 L19.3487 889.596 Q19.3487 892.747 20.6219 893.989 Q21.895 895.198 25.2052 895.198 L28.3562 895.198 L28.3562 885.554 L32.9077 885.554 L32.9077 895.198 L64.0042 895.198 L64.0042 901.086 L32.9077 901.086 L32.9077 906.688 L28.3562 906.688 L28.3562 901.086 L25.8736 901.086 Q19.9216 901.086 17.2162 898.317 Q14.479 895.548 14.479 889.533 L14.479 883.994 Z" fill="#000000" fill-rule="evenodd" fill-opacity="1"></path><path clip-path="url(#clip530)" d="M29.4065 835.647 L34.9447 835.647 Q33.6716 838.13 33.035 840.803 Q32.3984 843.477 32.3984 846.341 Q32.3984 850.702 33.7352 852.898 Q35.072 855.062 37.7456 855.062 Q39.7826 855.062 40.9603 853.503 Q42.1061 851.943 43.1565 847.232 L43.6021 845.227 Q44.9389 838.989 47.3897 836.379 Q49.8086 833.737 54.1691 833.737 Q59.1344 833.737 62.0308 837.684 Q64.9272 841.599 64.9272 848.474 Q64.9272 851.338 64.3543 854.458 Q63.8132 857.545 62.6992 860.982 L56.6518 860.982 Q58.3387 857.736 59.198 854.585 Q60.0256 851.434 60.0256 848.346 Q60.0256 844.209 58.6251 841.981 Q57.1929 839.753 54.6147 839.753 Q52.2276 839.753 50.9545 841.376 Q49.6813 842.967 48.5037 848.41 L48.0262 850.447 Q46.8804 855.89 44.5251 858.309 Q42.138 860.728 38.0002 860.728 Q32.9713 860.728 30.2341 857.163 Q27.4968 853.598 27.4968 847.042 Q27.4968 843.795 27.9743 840.93 Q28.4517 838.066 29.4065 835.647 Z" fill="#000000" fill-rule="evenodd" fill-opacity="1"></path><path clip-path="url(#clip530)" d="M18.2347 818.619 L28.3562 818.619 L28.3562 806.556 L32.9077 806.556 L32.9077 818.619 L52.2594 818.619 Q56.6199 818.619 57.8613 817.441 Q59.1026 816.231 59.1026 812.571 L59.1026 806.556 L64.0042 806.556 L64.0042 812.571 Q64.0042 819.351 61.4897 821.929 Q58.9434 824.507 52.2594 824.507 L32.9077 824.507 L32.9077 828.804 L28.3562 828.804 L28.3562 824.507 L18.2347 824.507 L18.2347 818.619 Z" fill="#000000" fill-rule="evenodd" fill-opacity="1"></path><path clip-path="url(#clip530)" d="M44.7161 768.361 L47.5806 768.361 L47.5806 795.288 Q53.6281 794.906 56.8109 791.66 Q59.9619 788.382 59.9619 782.557 Q59.9619 779.183 59.1344 776.032 Q58.3069 772.849 56.6518 769.73 L62.1899 769.73 Q63.5267 772.881 64.227 776.191 Q64.9272 779.501 64.9272 782.907 Q64.9272 791.437 59.9619 796.434 Q54.9967 801.399 46.5303 801.399 Q37.7774 801.399 32.6531 796.689 Q27.4968 791.946 27.4968 783.926 Q27.4968 776.732 32.1438 772.563 Q36.7589 768.361 44.7161 768.361 M42.9973 774.218 Q38.1912 774.281 35.3266 776.923 Q32.4621 779.533 32.4621 783.862 Q32.4621 788.763 35.2312 791.724 Q38.0002 794.652 43.0292 795.097 L42.9973 774.218 Z" fill="#000000" fill-rule="evenodd" fill-opacity="1"></path><path clip-path="url(#clip530)" d="M58.657 753.084 L77.5631 753.084 L77.5631 758.972 L28.3562 758.972 L28.3562 753.084 L33.7671 753.084 Q30.5842 751.238 29.0564 748.437 Q27.4968 745.604 27.4968 741.689 Q27.4968 735.196 32.6531 731.154 Q37.8093 727.08 46.212 727.08 Q54.6147 727.08 59.771 731.154 Q64.9272 735.196 64.9272 741.689 Q64.9272 745.604 63.3994 748.437 Q61.8398 751.238 58.657 753.084 M46.212 733.159 Q39.7508 733.159 36.0905 735.833 Q32.3984 738.474 32.3984 743.121 Q32.3984 747.768 36.0905 750.442 Q39.7508 753.084 46.212 753.084 Q52.6732 753.084 56.3653 750.442 Q60.0256 747.768 60.0256 743.121 Q60.0256 738.474 56.3653 735.833 Q52.6732 733.159 46.212 733.159 Z" fill="#000000" fill-rule="evenodd" fill-opacity="1"></path><path clip-path="url(#clip530)" d="M29.4065 694.647 L34.9447 694.647 Q33.6716 697.129 33.035 699.803 Q32.3984 702.476 32.3984 705.341 Q32.3984 709.701 33.7352 711.898 Q35.072 714.062 37.7456 714.062 Q39.7826 714.062 40.9603 712.502 Q42.1061 710.943 43.1565 706.232 L43.6021 704.227 Q44.9389 697.988 47.3897 695.379 Q49.8086 692.737 54.1691 692.737 Q59.1344 692.737 62.0308 696.684 Q64.9272 700.598 64.9272 707.473 Q64.9272 710.338 64.3543 713.457 Q63.8132 716.545 62.6992 719.982 L56.6518 719.982 Q58.3387 716.736 59.198 713.584 Q60.0256 710.433 60.0256 707.346 Q60.0256 703.208 58.6251 700.98 Q57.1929 698.752 54.6147 698.752 Q52.2276 698.752 50.9545 700.376 Q49.6813 701.967 48.5037 707.41 L48.0262 709.447 Q46.8804 714.889 44.5251 717.308 Q42.138 719.727 38.0002 719.727 Q32.9713 719.727 30.2341 716.163 Q27.4968 712.598 27.4968 706.041 Q27.4968 702.795 27.9743 699.93 Q28.4517 697.065 29.4065 694.647 Z" fill="#000000" fill-rule="evenodd" fill-opacity="1"></path><path clip-path="url(#clip530)" d="M18.2347 656.898 L28.3562 656.898 L28.3562 644.835 L32.9077 644.835 L32.9077 656.898 L52.2594 656.898 Q56.6199 656.898 57.8613 655.72 Q59.1026 654.511 59.1026 650.85 L59.1026 644.835 L64.0042 644.835 L64.0042 650.85 Q64.0042 657.63 61.4897 660.208 Q58.9434 662.786 52.2594 662.786 L32.9077 662.786 L32.9077 667.083 L28.3562 667.083 L28.3562 662.786 L18.2347 662.786 L18.2347 656.898 Z" fill="#000000" fill-rule="evenodd" fill-opacity="1"></path><path clip-path="url(#clip530)" d="M32.4621 623.319 Q32.4621 628.029 36.1542 630.767 Q39.8145 633.504 46.212 633.504 Q52.6095 633.504 56.3017 630.798 Q59.9619 628.061 59.9619 623.319 Q59.9619 618.64 56.2698 615.903 Q52.5777 613.165 46.212 613.165 Q39.8781 613.165 36.186 615.903 Q32.4621 618.64 32.4621 623.319 M27.4968 623.319 Q27.4968 615.68 32.4621 611.319 Q37.4273 606.959 46.212 606.959 Q54.9649 606.959 59.9619 611.319 Q64.9272 615.68 64.9272 623.319 Q64.9272 630.989 59.9619 635.35 Q54.9649 639.679 46.212 639.679 Q37.4273 639.679 32.4621 635.35 Q27.4968 630.989 27.4968 623.319 Z" fill="#000000" fill-rule="evenodd" fill-opacity="1"></path><path clip-path="url(#clip530)" d="M33.8307 555.874 Q33.2578 556.861 33.0032 558.038 Q32.7167 559.184 32.7167 560.585 Q32.7167 565.55 35.9632 568.224 Q39.1779 570.865 45.2253 570.865 L64.0042 570.865 L64.0042 576.754 L28.3562 576.754 L28.3562 570.865 L33.8944 570.865 Q30.6479 569.019 29.0883 566.059 Q27.4968 563.099 27.4968 558.866 Q27.4968 558.261 27.5923 557.529 Q27.656 556.797 27.8151 555.906 L33.8307 555.874 Z" fill="#000000" fill-rule="evenodd" fill-opacity="1"></path><path clip-path="url(#clip530)" d="M44.7161 520.672 L47.5806 520.672 L47.5806 547.599 Q53.6281 547.217 56.8109 543.97 Q59.9619 540.692 59.9619 534.867 Q59.9619 531.493 59.1344 528.342 Q58.3069 525.16 56.6518 522.04 L62.1899 522.04 Q63.5267 525.191 64.227 528.502 Q64.9272 531.812 64.9272 535.217 Q64.9272 543.747 59.9619 548.745 Q54.9967 553.71 46.5303 553.71 Q37.7774 553.71 32.6531 548.999 Q27.4968 544.257 27.4968 536.236 Q27.4968 529.043 32.1438 524.873 Q36.7589 520.672 44.7161 520.672 M42.9973 526.528 Q38.1912 526.592 35.3266 529.234 Q32.4621 531.844 32.4621 536.172 Q32.4621 541.074 35.2312 544.034 Q38.0002 546.962 43.0292 547.408 L42.9973 526.528 Z" fill="#000000" fill-rule="evenodd" fill-opacity="1"></path><path clip-path="url(#clip530)" d="M46.0847 494.859 Q46.0847 501.957 47.7079 504.694 Q49.3312 507.431 53.2461 507.431 Q56.3653 507.431 58.2114 505.394 Q60.0256 503.325 60.0256 499.792 Q60.0256 494.922 56.5881 491.994 Q53.1188 489.034 47.3897 489.034 L46.0847 489.034 L46.0847 494.859 M43.6657 483.178 L64.0042 483.178 L64.0042 489.034 L58.5933 489.034 Q61.8398 491.039 63.3994 494.031 Q64.9272 497.023 64.9272 501.352 Q64.9272 506.826 61.8716 510.073 Q58.7843 513.288 53.6281 513.288 Q47.6125 513.288 44.5569 509.277 Q41.5014 505.235 41.5014 497.246 L41.5014 489.034 L40.9285 489.034 Q36.8862 489.034 34.6901 491.708 Q32.4621 494.35 32.4621 499.156 Q32.4621 502.211 33.1941 505.108 Q33.9262 508.004 35.3903 510.678 L29.9795 510.678 Q28.7381 507.463 28.1334 504.439 Q27.4968 501.415 27.4968 498.551 Q27.4968 490.817 31.5072 486.997 Q35.5176 483.178 43.6657 483.178 Z" fill="#000000" fill-rule="evenodd" fill-opacity="1"></path><path clip-path="url(#clip530)" d="M29.7248 445.461 L35.1993 445.461 Q33.8307 447.944 33.1623 450.458 Q32.4621 452.941 32.4621 455.487 Q32.4621 461.184 36.0905 464.335 Q39.6872 467.486 46.212 467.486 Q52.7369 467.486 56.3653 464.335 Q59.9619 461.184 59.9619 455.487 Q59.9619 452.941 59.2935 450.458 Q58.5933 447.944 57.2247 445.461 L62.6355 445.461 Q63.7814 447.912 64.3543 450.553 Q64.9272 453.163 64.9272 456.123 Q64.9272 464.176 59.8664 468.919 Q54.8057 473.661 46.212 473.661 Q37.491 473.661 32.4939 468.887 Q27.4968 464.081 27.4968 455.742 Q27.4968 453.036 28.0697 450.458 Q28.6108 447.88 29.7248 445.461 Z" fill="#000000" fill-rule="evenodd" fill-opacity="1"></path><path clip-path="url(#clip530)" d="M42.4881 405.643 L64.0042 405.643 L64.0042 411.5 L42.679 411.5 Q37.6183 411.5 35.1038 413.473 Q32.5894 415.447 32.5894 419.393 Q32.5894 424.136 35.6131 426.873 Q38.6368 429.61 43.8567 429.61 L64.0042 429.61 L64.0042 435.499 L14.479 435.499 L14.479 429.61 L33.8944 429.61 Q30.6797 427.51 29.0883 424.677 Q27.4968 421.812 27.4968 418.088 Q27.4968 411.945 31.3163 408.794 Q35.1038 405.643 42.4881 405.643 Z" fill="#000000" fill-rule="evenodd" fill-opacity="1"></path><path clip-path="url(#clip530)" d="M45.7664 349.784 Q39.4007 349.784 35.8996 352.426 Q32.3984 355.036 32.3984 359.779 Q32.3984 364.489 35.8996 367.131 Q39.4007 369.741 45.7664 369.741 Q52.1003 369.741 55.6014 367.131 Q59.1026 364.489 59.1026 359.779 Q59.1026 355.036 55.6014 352.426 Q52.1003 349.784 45.7664 349.784 M59.58 343.928 Q68.683 343.928 73.1071 347.97 Q77.5631 352.012 77.5631 360.351 Q77.5631 363.439 77.0857 366.176 Q76.6401 368.913 75.6852 371.491 L69.9879 371.491 Q71.3884 368.913 72.0568 366.399 Q72.7252 363.884 72.7252 361.274 Q72.7252 355.513 69.7015 352.649 Q66.7096 349.784 60.6303 349.784 L57.7339 349.784 Q60.885 351.599 62.4446 354.431 Q64.0042 357.264 64.0042 361.211 Q64.0042 367.767 59.0071 371.778 Q54.01 375.788 45.7664 375.788 Q37.491 375.788 32.4939 371.778 Q27.4968 367.767 27.4968 361.211 Q27.4968 357.264 29.0564 354.431 Q30.616 351.599 33.7671 349.784 L28.3562 349.784 L28.3562 343.928 L59.58 343.928 Z" fill="#000000" fill-rule="evenodd" fill-opacity="1"></path><path clip-path="url(#clip530)" d="M32.4621 318.051 Q32.4621 322.762 36.1542 325.499 Q39.8145 328.236 46.212 328.236 Q52.6095 328.236 56.3017 325.531 Q59.9619 322.794 59.9619 318.051 Q59.9619 313.373 56.2698 310.635 Q52.5777 307.898 46.212 307.898 Q39.8781 307.898 36.186 310.635 Q32.4621 313.373 32.4621 318.051 M27.4968 318.051 Q27.4968 310.412 32.4621 306.052 Q37.4273 301.691 46.212 301.691 Q54.9649 301.691 59.9619 306.052 Q64.9272 310.412 64.9272 318.051 Q64.9272 325.722 59.9619 330.082 Q54.9649 334.411 46.212 334.411 Q37.4273 334.411 32.4621 330.082 Q27.4968 325.722 27.4968 318.051 Z" fill="#000000" fill-rule="evenodd" fill-opacity="1"></path><path clip-path="url(#clip530)" d="M46.0847 275.783 Q46.0847 282.881 47.7079 285.618 Q49.3312 288.355 53.2461 288.355 Q56.3653 288.355 58.2114 286.318 Q60.0256 284.249 60.0256 280.716 Q60.0256 275.847 56.5881 272.918 Q53.1188 269.958 47.3897 269.958 L46.0847 269.958 L46.0847 275.783 M43.6657 264.102 L64.0042 264.102 L64.0042 269.958 L58.5933 269.958 Q61.8398 271.964 63.3994 274.955 Q64.9272 277.947 64.9272 282.276 Q64.9272 287.751 61.8716 290.997 Q58.7843 294.212 53.6281 294.212 Q47.6125 294.212 44.5569 290.201 Q41.5014 286.159 41.5014 278.17 L41.5014 269.958 L40.9285 269.958 Q36.8862 269.958 34.6901 272.632 Q32.4621 275.274 32.4621 280.08 Q32.4621 283.135 33.1941 286.032 Q33.9262 288.928 35.3903 291.602 L29.9795 291.602 Q28.7381 288.387 28.1334 285.363 Q27.4968 282.34 27.4968 279.475 Q27.4968 271.741 31.5072 267.921 Q35.5176 264.102 43.6657 264.102 Z" fill="#000000" fill-rule="evenodd" fill-opacity="1"></path><path clip-path="url(#clip530)" d="M14.479 252.039 L14.479 246.182 L64.0042 246.182 L64.0042 252.039 L14.479 252.039 Z" fill="#000000" fill-rule="evenodd" fill-opacity="1"></path><polyline clip-path="url(#clip532)" style="stroke:#009af9; stroke-linecap:butt; stroke-linejoin:round; stroke-width:12; stroke-opacity:1; fill:none" points="
  282.975,1384.24 506.253,1369.94 729.53,1191.01 952.807,1192.49 1176.08,997.79 1399.36,1206.09 1622.64,1198.45 1845.92,1191.01 2069.19,723.363 2292.47,86.1857 
  
  "></polyline>
<polyline clip-path="url(#clip532)" style="stroke:#e26f46; stroke-linecap:butt; stroke-linejoin:round; stroke-width:12; stroke-opacity:1; fill:none" points="
  282.975,1384.24 506.253,1369.94 729.53,1326.17 952.807,1189.55 1176.08,1206.09 1399.36,1207.64 1622.64,1192.49 1845.92,1185.21 2069.19,1063.69 2292.47,86.1857 
  
  "></polyline>
<polyline clip-path="url(#clip532)" style="stroke:#3da44d; stroke-linecap:butt; stroke-linejoin:round; stroke-width:12; stroke-opacity:1; fill:none" points="
  282.975,1384.24 506.253,1375.57 729.53,1367.17 952.807,1359.01 1176.08,1356.34 1399.36,1345.92 1622.64,1328.57 1845.92,1316.8 2069.19,1301.12 2292.47,1242.43 
  
  "></polyline>
<path clip-path="url(#clip530)" d="
M1906.49 300.469 L2281.75 300.469 L2281.75 93.1086 L1906.49 93.1086  Z
  " fill="#ffffff" fill-rule="evenodd" fill-opacity="1"></path>
<polyline clip-path="url(#clip530)" style="stroke:#000000; stroke-linecap:butt; stroke-linejoin:round; stroke-width:4; stroke-opacity:1; fill:none" points="
  1906.49,300.469 2281.75,300.469 2281.75,93.1086 1906.49,93.1086 1906.49,300.469 
  "></polyline>
<polyline clip-path="url(#clip530)" style="stroke:#009af9; stroke-linecap:butt; stroke-linejoin:round; stroke-width:4; stroke-opacity:1; fill:none" points="
  1930.16,144.949 2072.16,144.949 
  "></polyline>
<path clip-path="url(#clip530)" d="M2112.22 146.025 Q2113.73 146.534 2115.14 148.201 Q2116.57 149.868 2118.01 152.784 L2122.75 162.229 L2117.73 162.229 L2113.31 153.363 Q2111.6 149.891 2109.98 148.756 Q2108.38 147.622 2105.6 147.622 L2100.51 147.622 L2100.51 162.229 L2095.83 162.229 L2095.83 127.669 L2106.39 127.669 Q2112.31 127.669 2115.23 130.145 Q2118.15 132.622 2118.15 137.622 Q2118.15 140.886 2116.62 143.039 Q2115.11 145.192 2112.22 146.025 M2100.51 131.511 L2100.51 143.78 L2106.39 143.78 Q2109.77 143.78 2111.48 142.229 Q2113.22 140.655 2113.22 137.622 Q2113.22 134.59 2111.48 133.062 Q2109.77 131.511 2106.39 131.511 L2100.51 131.511 Z" fill="#000000" fill-rule="evenodd" fill-opacity="1"></path><path clip-path="url(#clip530)" d="M2120.53 127.669 L2149.77 127.669 L2149.77 131.604 L2137.5 131.604 L2137.5 162.229 L2132.8 162.229 L2132.8 131.604 L2120.53 131.604 L2120.53 127.669 Z" fill="#000000" fill-rule="evenodd" fill-opacity="1"></path><path clip-path="url(#clip530)" d="M2162.15 132.275 L2155.81 149.474 L2168.52 149.474 L2162.15 132.275 M2159.51 127.669 L2164.81 127.669 L2177.98 162.229 L2173.12 162.229 L2169.97 153.363 L2154.4 153.363 L2151.25 162.229 L2146.32 162.229 L2159.51 127.669 Z" fill="#000000" fill-rule="evenodd" fill-opacity="1"></path><path clip-path="url(#clip530)" d="M2195.9 132.275 L2189.56 149.474 L2202.27 149.474 L2195.9 132.275 M2193.26 127.669 L2198.56 127.669 L2211.73 162.229 L2206.87 162.229 L2203.72 153.363 L2188.15 153.363 L2185 162.229 L2180.07 162.229 L2193.26 127.669 Z" fill="#000000" fill-rule="evenodd" fill-opacity="1"></path><path clip-path="url(#clip530)" d="M2234.42 133.363 L2226.11 137.854 L2234.42 142.368 L2233.08 144.636 L2225.3 139.937 L2225.3 148.664 L2222.66 148.664 L2222.66 139.937 L2214.88 144.636 L2213.54 142.368 L2221.85 137.854 L2213.54 133.363 L2214.88 131.071 L2222.66 135.77 L2222.66 127.044 L2225.3 127.044 L2225.3 135.77 L2233.08 131.071 L2234.42 133.363 Z" fill="#000000" fill-rule="evenodd" fill-opacity="1"></path><polyline clip-path="url(#clip530)" style="stroke:#e26f46; stroke-linecap:butt; stroke-linejoin:round; stroke-width:4; stroke-opacity:1; fill:none" points="
  1930.16,196.789 2072.16,196.789 
  "></polyline>
<path clip-path="url(#clip530)" d="M2123.7 182.171 L2123.7 187.101 Q2121.34 184.902 2118.66 183.814 Q2115.99 182.726 2112.98 182.726 Q2107.06 182.726 2103.91 186.36 Q2100.76 189.972 2100.76 196.823 Q2100.76 203.652 2103.91 207.286 Q2107.06 210.897 2112.98 210.897 Q2115.99 210.897 2118.66 209.809 Q2121.34 208.721 2123.7 206.522 L2123.7 211.407 Q2121.25 213.073 2118.49 213.907 Q2115.76 214.74 2112.71 214.74 Q2104.86 214.74 2100.35 209.948 Q2095.83 205.133 2095.83 196.823 Q2095.83 188.49 2100.35 183.698 Q2104.86 178.884 2112.71 178.884 Q2115.81 178.884 2118.54 179.717 Q2121.29 180.527 2123.7 182.171 Z" fill="#000000" fill-rule="evenodd" fill-opacity="1"></path><path clip-path="url(#clip530)" d="M2130.92 179.509 L2137.89 179.509 L2146.71 203.027 L2155.58 179.509 L2162.54 179.509 L2162.54 214.069 L2157.98 214.069 L2157.98 183.722 L2149.07 207.425 L2144.37 207.425 L2135.46 183.722 L2135.46 214.069 L2130.92 214.069 L2130.92 179.509 Z" fill="#000000" fill-rule="evenodd" fill-opacity="1"></path><path clip-path="url(#clip530)" d="M2183.38 184.115 L2177.03 201.314 L2189.74 201.314 L2183.38 184.115 M2180.74 179.509 L2186.04 179.509 L2199.21 214.069 L2194.35 214.069 L2191.2 205.203 L2175.62 205.203 L2172.47 214.069 L2167.54 214.069 L2180.74 179.509 Z" fill="#000000" fill-rule="evenodd" fill-opacity="1"></path><path clip-path="url(#clip530)" d="M2202.59 179.509 L2207.61 179.509 L2216.2 192.356 L2224.84 179.509 L2229.86 179.509 L2218.75 196.106 L2230.6 214.069 L2225.58 214.069 L2215.85 199.37 L2206.06 214.069 L2201.02 214.069 L2213.35 195.62 L2202.59 179.509 Z" fill="#000000" fill-rule="evenodd" fill-opacity="1"></path><polyline clip-path="url(#clip530)" style="stroke:#3da44d; stroke-linecap:butt; stroke-linejoin:round; stroke-width:4; stroke-opacity:1; fill:none" points="
  1930.16,248.629 2072.16,248.629 
  "></polyline>
<path clip-path="url(#clip530)" d="M2095.83 231.349 L2125.07 231.349 L2125.07 235.284 L2112.8 235.284 L2112.8 265.909 L2108.1 265.909 L2108.1 235.284 L2095.83 235.284 L2095.83 231.349 Z" fill="#000000" fill-rule="evenodd" fill-opacity="1"></path><path clip-path="url(#clip530)" d="M2137.45 243.964 Q2136.73 243.548 2135.88 243.362 Q2135.04 243.154 2134.03 243.154 Q2130.41 243.154 2128.47 245.515 Q2126.55 247.853 2126.55 252.251 L2126.55 265.909 L2122.27 265.909 L2122.27 239.983 L2126.55 239.983 L2126.55 244.011 Q2127.89 241.649 2130.04 240.515 Q2132.2 239.358 2135.28 239.358 Q2135.72 239.358 2136.25 239.427 Q2136.78 239.474 2137.43 239.589 L2137.45 243.964 Z" fill="#000000" fill-rule="evenodd" fill-opacity="1"></path><path clip-path="url(#clip530)" d="M2141.48 255.677 L2141.48 239.983 L2145.74 239.983 L2145.74 255.515 Q2145.74 259.196 2147.17 261.048 Q2148.61 262.876 2151.48 262.876 Q2154.93 262.876 2156.92 260.677 Q2158.93 258.478 2158.93 254.682 L2158.93 239.983 L2163.19 239.983 L2163.19 265.909 L2158.93 265.909 L2158.93 261.927 Q2157.38 264.288 2155.32 265.446 Q2153.29 266.58 2150.58 266.58 Q2146.11 266.58 2143.79 263.802 Q2141.48 261.024 2141.48 255.677 M2152.2 239.358 L2152.2 239.358 Z" fill="#000000" fill-rule="evenodd" fill-opacity="1"></path><path clip-path="url(#clip530)" d="M2194.14 251.881 L2194.14 253.964 L2174.56 253.964 Q2174.84 258.362 2177.2 260.677 Q2179.58 262.969 2183.82 262.969 Q2186.27 262.969 2188.56 262.367 Q2190.88 261.765 2193.15 260.561 L2193.15 264.589 Q2190.85 265.561 2188.45 266.071 Q2186.04 266.58 2183.56 266.58 Q2177.36 266.58 2173.72 262.969 Q2170.11 259.358 2170.11 253.2 Q2170.11 246.835 2173.54 243.108 Q2176.99 239.358 2182.82 239.358 Q2188.05 239.358 2191.09 242.737 Q2194.14 246.094 2194.14 251.881 M2189.88 250.631 Q2189.84 247.136 2187.91 245.052 Q2186.02 242.969 2182.87 242.969 Q2179.3 242.969 2177.15 244.983 Q2175.02 246.997 2174.7 250.654 L2189.88 250.631 Z" fill="#000000" fill-rule="evenodd" fill-opacity="1"></path></svg>